<?xml version="1.0" encoding="us-ascii" standalone="no"?><svg xmlns="http://www.w3.org/2000/svg" xmlns:xlink="http://www.w3.org/1999/xlink" contentStyleType="text/css" height="1357px" preserveAspectRatio="none" style="width:742px;height:1357px;background:#FFFFFF;" version="1.1" viewBox="0 0 742 1357" width="742px" zoomAndPan="magnify"><defs/><g><g id="GS1"><rect fill="#F1F1F1" height="50" rx="12.5" ry="12.5" style="stroke:#181818;stroke-width:0.5;" width="50" x="384" y="87"/><line style="stroke:#181818;stroke-width:0.5;" x1="384" x2="434" y1="116.0679" y2="116.0679"/><text fill="#000000" font-family="sans-serif" font-size="14" lengthAdjust="spacing" textLength="4" x="407" y="106.9659">&#160;</text></g><g id="GS2"><rect fill="#F1F1F1" height="50" rx="12.5" ry="12.5" style="stroke:#181818;stroke-width:0.5;" width="50" x="21" y="387.5"/><line style="stroke:#181818;stroke-width:0.5;" x1="21" x2="71" y1="416.5679" y2="416.5679"/><text fill="#000000" font-family="sans-serif" font-size="14" lengthAdjust="spacing" textLength="4" x="44" y="407.4659">&#160;</text></g><g id="GS3"><rect fill="#F1F1F1" height="50" rx="12.5" ry="12.5" style="stroke:#181818;stroke-width:0.5;" width="50" x="131" y="649"/><line style="stroke:#181818;stroke-width:0.5;" x1="131" x2="181" y1="678.0679" y2="678.0679"/><text fill="#000000" font-family="sans-serif" font-size="14" lengthAdjust="spacing" textLength="4" x="154" y="668.9659">&#160;</text></g><g id="GS4"><rect fill="#F1F1F1" height="50" rx="12.5" ry="12.5" style="stroke:#181818;stroke-width:0.5;" width="50" x="273" y="849"/><line style="stroke:#181818;stroke-width:0.5;" x1="273" x2="323" y1="878.0679" y2="878.0679"/><text fill="#000000" font-family="sans-serif" font-size="14" lengthAdjust="spacing" textLength="4" x="296" y="868.9659">&#160;</text></g><g id="GS5"><rect fill="#F1F1F1" height="50" rx="12.5" ry="12.5" style="stroke:#181818;stroke-width:0.5;" width="50" x="456" y="1045"/><line style="stroke:#181818;stroke-width:0.5;" x1="456" x2="506" y1="1074.0679" y2="1074.0679"/><text fill="#000000" font-family="sans-serif" font-size="14" lengthAdjust="spacing" textLength="4" x="479" y="1064.9659">&#160;</text></g><g id="elem_GC1"><polygon fill="#F1F1F1" points="156,510,168,522,156,534,144,522,156,510" style="stroke:#181818;stroke-width:0.5;"/></g><g id="elem_GC2"><polygon fill="#F1F1F1" points="481,960,493,972,481,984,469,972,481,960" style="stroke:#181818;stroke-width:0.5;"/></g><g id="elem_GC3"><polygon fill="#F1F1F1" points="597,1228,609,1240,597,1252,585,1240,597,1228" style="stroke:#181818;stroke-width:0.5;"/></g><ellipse cx="409" cy="16" fill="#181818" rx="10" ry="10" style="stroke:none;stroke-width:1.0;"/><ellipse cx="597" cy="1341" fill="none" rx="10" ry="10" style="stroke:#181818;stroke-width:1.0;"/><ellipse cx="597.5" cy="1341.5" fill="#181818" rx="6" ry="6" style="stroke:none;stroke-width:1.0;"/><!--link *start* to GS1--><g id="link_*start*_GS1"><path d="M409,26.36 C409,38.87 409,61.67 409,80.45 " fill="none" id="*start*-to-GS1" style="stroke:#181818;stroke-width:1.0;"/><polygon fill="#181818" points="409,85.13,413,76.13,409,80.13,405,76.13,409,85.13" style="stroke:#181818;stroke-width:1.0;"/></g><!--link GS1 to GS2--><g id="link_GS1_GS2"><path d="M383.79,116.38 C295.56,128.2 6,167 6,167 C6,167 6,346 6,346 C6,346 17.28,364.47 27.86,381.79 " fill="none" id="GS1-to-GS2" style="stroke:#181818;stroke-width:1.0;"/><polygon fill="#181818" points="30.32,385.82,29.0427,376.0543,27.7139,381.5529,22.2153,380.2241,30.32,385.82" style="stroke:#181818;stroke-width:1.0;"/><path d="M11,172 L11,341 L269,341 L269,182 L259,172 L11,172 " fill="#FEFFDD" style="stroke:#181818;stroke-width:0.5;"/><path d="M259,172 L259,182 L269,182 L259,172 " fill="#FEFFDD" style="stroke:#181818;stroke-width:0.5;"/><text fill="#000000" font-family="sans-serif" font-size="13" font-weight="bold" lengthAdjust="spacing" textLength="109" x="17" y="190.897">System requires:</text><ellipse cx="22.5" cy="204.912" fill="#000000" rx="2.5" ry="2.5" style="stroke:#000000;stroke-width:0.0;"/><text fill="#000000" font-family="sans-serif" font-size="13" lengthAdjust="spacing" textLength="225" x="29" y="208.603">Propose combination with this colors:</text><text fill="#000000" font-family="sans-serif" font-size="13" lengthAdjust="spacing" textLength="43" x="41" y="226.309">- red (r)</text><text fill="#000000" font-family="sans-serif" font-size="13" lengthAdjust="spacing" textLength="61" x="41" y="244.0151">- green (g)</text><text fill="#000000" font-family="sans-serif" font-size="13" lengthAdjust="spacing" textLength="52" x="41" y="261.7211">- blue (b)</text><text fill="#000000" font-family="sans-serif" font-size="13" lengthAdjust="spacing" textLength="63" x="41" y="279.4271">- yellow (y)</text><text fill="#000000" font-family="sans-serif" font-size="13" lengthAdjust="spacing" textLength="69" x="41" y="297.1331">- orange (o)</text><text fill="#000000" font-family="sans-serif" font-size="13" lengthAdjust="spacing" textLength="65" x="41" y="314.8391">- purple (p)</text><text fill="#000000" font-family="sans-serif" font-size="13" lengthAdjust="spacing" textLength="64" x="41" y="332.5451">- empty (e)</text></g><!--link GS2 to GC1--><g id="link_GS2_GC1"><path d="M70.96,437.89 C94.6,461 128.92,494.54 145.82,511.05 " fill="none" id="GS2-to-GC1" style="stroke:#181818;stroke-width:1.0;"/><polygon fill="#181818" points="149.02,514.18,145.3918,505.0238,145.4489,510.6804,139.7924,510.7375,149.02,514.18" style="stroke:#181818;stroke-width:1.0;"/></g><!--link GC1 to GS3--><g id="link_GC1_GS3"><path d="M156,534.27 C156,556.95 156,608.76 156,642.25 " fill="none" id="GC1-to-GS3" style="stroke:#008000;stroke-width:1.0;"/><polygon fill="#008000" points="156,647.18,160,638.18,156,642.18,152,638.18,156,647.18" style="stroke:#008000;stroke-width:1.0;"/></g><!--link GC1 to GS1--><g id="link_GC1_GS1"><path d="M160.63,514.35 C182.92,482.39 278,346 278,346 C278,346 356.77,205.9 392.15,142.98 " fill="none" id="GC1-to-GS1" style="stroke:#FF0000;stroke-width:1.0;"/><polygon fill="#FF0000" points="394.49,138.81,386.5849,144.6845,392.0339,143.1652,393.5533,148.6142,394.49,138.81" style="stroke:#FF0000;stroke-width:1.0;"/><path d="M262,381 L262,444 L417,444 L417,391 L407,381 L262,381 " fill="#FEFFDD" style="stroke:#181818;stroke-width:0.5;"/><path d="M407,381 L407,391 L417,391 L407,381 " fill="#FEFFDD" style="stroke:#181818;stroke-width:0.5;"/><text fill="#000000" font-family="sans-serif" font-size="13" font-weight="bold" lengthAdjust="spacing" textLength="131" x="268" y="399.897">System show errors:</text><ellipse cx="273.5" cy="413.912" fill="#000000" rx="2.5" ry="2.5" style="stroke:#000000;stroke-width:0.0;"/><text fill="#000000" font-family="sans-serif" font-size="13" lengthAdjust="spacing" textLength="95" x="280" y="417.603">Colors repeated</text><ellipse cx="273.5" cy="431.618" fill="#000000" rx="2.5" ry="2.5" style="stroke:#000000;stroke-width:0.0;"/><text fill="#000000" font-family="sans-serif" font-size="13" lengthAdjust="spacing" textLength="104" x="280" y="435.309">Number of colors</text></g><!--link GS3 to GS4--><g id="link_GS3_GS4"><path d="M154.64,699.47 C153.85,713.76 153,729 153,729 C153,729 153,819 153,819 C153,819 224.04,845.46 266.67,861.33 " fill="none" id="GS3-to-GS4" style="stroke:#181818;stroke-width:1.0;"/><polygon fill="#181818" points="271.32,863.07,264.2791,856.1834,266.6337,861.3269,261.4901,863.6815,271.32,863.07" style="stroke:#181818;stroke-width:1.0;"/><path d="M158,734 L158,814 L487,814 L487,744 L477,734 L158,734 " fill="#FEFFDD" style="stroke:#181818;stroke-width:0.5;"/><path d="M477,734 L477,744 L487,744 L477,734 " fill="#FEFFDD" style="stroke:#181818;stroke-width:0.5;"/><text fill="#000000" font-family="sans-serif" font-size="13" font-weight="bold" lengthAdjust="spacing" textLength="94" x="164" y="752.897">System shows:</text><ellipse cx="169.5" cy="766.912" fill="#000000" rx="2.5" ry="2.5" style="stroke:#000000;stroke-width:0.0;"/><text fill="#000000" font-family="sans-serif" font-size="13" lengthAdjust="spacing" textLength="256" x="176" y="770.603">Color white if color and position are correct</text><ellipse cx="169.5" cy="784.618" fill="#000000" rx="2.5" ry="2.5" style="stroke:#000000;stroke-width:0.0;"/><text fill="#000000" font-family="sans-serif" font-size="13" lengthAdjust="spacing" textLength="296" x="176" y="788.309">Color black if color is correct but position is wrong</text><ellipse cx="169.5" cy="802.3241" fill="#000000" rx="2.5" ry="2.5" style="stroke:#000000;stroke-width:0.0;"/><text fill="#000000" font-family="sans-serif" font-size="13" lengthAdjust="spacing" textLength="269" x="176" y="806.0151">Color empty if color is not in the combination</text></g><!--link GS4 to GC2--><g id="link_GS4_GC2"><path d="M323.45,888.35 C363.04,909.12 437.96,948.42 468.03,964.19 " fill="none" id="GS4-to-GC2" style="stroke:#181818;stroke-width:1.0;"/><polygon fill="#181818" points="472.08,966.32,465.9756,958.591,467.6545,963.993,462.2525,965.6719,472.08,966.32" style="stroke:#181818;stroke-width:1.0;"/></g><!--link GC2 to GS1--><g id="link_GC2_GS1"><path d="M484.15,962.82 C493.1,939.6 518,875 518,875 C518,411.5 518,411.5 518,411.5 C518,411.5 447.66,218.88 419.99,143.11 " fill="none" id="GC2-to-GS1" style="stroke:#FF0000;stroke-width:1.0;"/><polygon fill="#FF0000" points="418.44,138.85,417.7661,148.6758,420.1533,143.5473,425.2818,145.9345,418.44,138.85" style="stroke:#FF0000;stroke-width:1.0;"/><path d="M523,569 L523,614 L685,614 L685,579 L675,569 L523,569 " fill="#FEFFDD" style="stroke:#181818;stroke-width:0.5;"/><path d="M675,569 L675,579 L685,579 L675,569 " fill="#FEFFDD" style="stroke:#181818;stroke-width:0.5;"/><text fill="#000000" font-family="sans-serif" font-size="13" font-weight="bold" lengthAdjust="spacing" textLength="109" x="529" y="587.897">System requires:</text><ellipse cx="534.5" cy="601.912" fill="#000000" rx="2.5" ry="2.5" style="stroke:#000000;stroke-width:0.0;"/><text fill="#000000" font-family="sans-serif" font-size="13" lengthAdjust="spacing" textLength="129" x="541" y="605.603">Propose combination</text></g><!--link GC2 to GS5--><g id="link_GC2_GS5"><path d="M481,984.39 C481,997.69 481,1020.21 481,1038.68 " fill="none" id="GC2-to-GS5" style="stroke:#181818;stroke-width:1.0;"/><polygon fill="#181818" points="481,1043.26,485,1034.26,481,1038.26,477,1034.26,481,1043.26" style="stroke:#181818;stroke-width:1.0;"/></g><!--link GS5 to GC3--><g id="link_GS5_GC3"><path d="M479.64,1095.47 C478.85,1109.76 478,1125 478,1125 C478,1125 478,1198 478,1198 C478,1198 550.48,1222.97 582.31,1233.94 " fill="none" id="GS5-to-GC3" style="stroke:#181818;stroke-width:1.0;"/><polygon fill="#181818" points="587.01,1235.56,579.8094,1228.8406,582.284,1233.9274,577.1972,1236.4021,587.01,1235.56" style="stroke:#181818;stroke-width:1.0;"/><path d="M483,1130 L483,1193 L682,1193 L682,1140 L672,1130 L483,1130 " fill="#FEFFDD" style="stroke:#181818;stroke-width:0.5;"/><path d="M672,1130 L672,1140 L682,1140 L672,1130 " fill="#FEFFDD" style="stroke:#181818;stroke-width:0.5;"/><text fill="#000000" font-family="sans-serif" font-size="13" font-weight="bold" lengthAdjust="spacing" textLength="109" x="489" y="1148.897">System requires:</text><ellipse cx="494.5" cy="1162.912" fill="#000000" rx="2.5" ry="2.5" style="stroke:#000000;stroke-width:0.0;"/><text fill="#000000" font-family="sans-serif" font-size="13" lengthAdjust="spacing" textLength="166" x="501" y="1166.603">Yes or No to play new game</text><ellipse cx="494.5" cy="1180.618" fill="#000000" rx="2.5" ry="2.5" style="stroke:#000000;stroke-width:0.0;"/><text fill="#000000" font-family="sans-serif" font-size="13" lengthAdjust="spacing" textLength="158" x="501" y="1184.309">Yes or No to resume game</text></g><!--link GC3 to GS1--><g id="link_GC3_GS1"><path d="M605.01,1235.5 C627.75,1225.59 691,1198 691,1198 C691,1198 713,1071 713,1071 C713,411.5 713,411.5 713,411.5 C713,411.5 487,167 487,167 C487,167 461.21,149.15 439.29,133.97 " fill="none" id="GC3-to-GS1" style="stroke:#008000;stroke-width:1.0;"/><polygon fill="#008000" points="435.35,131.24,440.4805,139.647,439.4635,134.0823,445.0282,133.0654,435.35,131.24" style="stroke:#008000;stroke-width:1.0;"/><text fill="#000000" font-family="sans-serif" font-size="13" lengthAdjust="spacing" textLength="20" x="714" y="779.397">Yes</text></g><!--link GC3 to *end*--><g id="link_GC3_*end*"><path d="M597,1252.36 C597,1269.98 597,1303.99 597,1324.06 " fill="none" id="GC3-to-*end*" style="stroke:#181818;stroke-width:1.0;"/><polygon fill="#181818" points="597,1329.02,601,1320.02,597,1324.02,593,1320.02,597,1329.02" style="stroke:#181818;stroke-width:1.0;"/><text fill="#000000" font-family="sans-serif" font-size="13" lengthAdjust="spacing" textLength="18" x="598" y="1296.897">No</text></g><!--SRC=[bPF1RgCm48RlVeffzq8gHLL2UeaYBZJgPJUjahrKLRGoC0KhO7kD4UBjTmoq0HBjRZd1D_DxnlyCDmc-2ucm_V7oynLkuPRTz2Hy_lwy_xNVFiBRDuF9SH9usc-tEmgb1b4UMNaIKdF32yWfnpOQGQkySH-CbPPRXAV30dZPLVf4oqlaNwBL9NeuemyMBc2pYJCbOWo2JxYy1lqXP6ztHvZF0zSXSrrsxqic5IKhwQvqOa3F9WeEJMcn08E_As6mNCFcFWhQu1sy6ALLYH2h8XAIMq7QMjWCR2PAehao96YJFvuvdPI0PsOJsjeANZhbKLuXUD4KDvZdgWQlcGQKuJ8bXPgvxqbGLqRd5DHJ5HRQDk3XZA5CmDd0c9jLQqn89f7Lyy4Uj7xvGqnxqnlw5nFBZ7f6OrfR1Zw6hLFaZ4OQLzBJNLL4Q42zzqwEUlFxeQt-LUzA9QWpGHhH7moSpgKvYdP-tBXv6eEn7McYdCUdiwQTRvi5KMNFSkArKJ8TQJjxXrfg6eIaFHajp-Y6gzxz9NCx_HMR_tjNtOOCIeRzm0yFpFrlNNd_ovLUiQGrX9q2gq3dl069DQIym6i9fAuAxCB3NlpBXLkidRIB4Q2_U4s7_040]--></g></svg>