<?xml version="1.0" encoding="UTF-8" standalone="no"?><svg xmlns="http://www.w3.org/2000/svg" xmlns:xlink="http://www.w3.org/1999/xlink" contentStyleType="text/css" height="539px" preserveAspectRatio="none" style="width:400px;height:539px;background:#FFFFFF;" version="1.1" viewBox="0 0 400 539" width="400px" zoomAndPan="magnify"><defs/><g><ellipse cx="197" cy="16" fill="#222222" rx="10" ry="10" style="stroke:none;stroke-width:1.0;"/><ellipse cx="197" cy="523.07" fill="none" rx="10" ry="10" style="stroke:#222222;stroke-width:1.0;"/><ellipse cx="197.5" cy="523.57" fill="#222222" rx="6" ry="6" style="stroke:none;stroke-width:1.0;"/><path d="M19.5,86 L374.5,86 A12.5,12.5 0 0 1 387,98.5 L387,115.0679 L7,115.0679 L7,98.5 A12.5,12.5 0 0 1 19.5,86 " fill="#F1F1F1" style="stroke:#F1F1F1;stroke-width:1.0;"/><rect fill="none" height="367.0679" rx="12.5" ry="12.5" style="stroke:#181818;stroke-width:0.5;" width="380" x="7" y="86"/><line style="stroke:#181818;stroke-width:0.5;" x1="7" x2="387" y1="115.0679" y2="115.0679"/><text fill="#000000" font-family="sans-serif" font-size="14" lengthAdjust="spacing" textLength="335" x="29.5" y="105.9659">SET_NUMBER_ATTEMPTS_OR_SIZE_COMBINATION</text><g id="SET_NUMBER_ATTEMPTS_OR_SIZE_COMBINATION.NAS1"><rect fill="#F1F1F1" height="50" rx="12.5" ry="12.5" style="stroke:#181818;stroke-width:0.5;" width="50" x="118" y="183.0679"/><line style="stroke:#181818;stroke-width:0.5;" x1="118" x2="168" y1="212.1358" y2="212.1358"/><text fill="#000000" font-family="sans-serif" font-size="14" lengthAdjust="spacing" textLength="4" x="141" y="203.0339"> </text></g><g id="SET_NUMBER_ATTEMPTS_OR_SIZE_COMBINATION.NAS2"><rect fill="#F1F1F1" height="50" rx="12.5" ry="12.5" style="stroke:#181818;stroke-width:0.5;" width="50" x="19" y="272.5679"/><line style="stroke:#181818;stroke-width:0.5;" x1="19" x2="69" y1="301.6358" y2="301.6358"/><text fill="#000000" font-family="sans-serif" font-size="14" lengthAdjust="spacing" textLength="4" x="42" y="292.5339"> </text></g><g id="elem_NAC1"><polygon fill="#F1F1F1" points="143,362.0679,155,374.0679,143,386.0679,131,374.0679,143,362.0679" style="stroke:#181818;stroke-width:0.5;"/></g><ellipse cx="143" cy="136.0679" fill="#222222" rx="10" ry="10" style="stroke:none;stroke-width:1.0;"/><g id="elem_GMN11"><path d="M186,185.3579 L186,230.7699 L322,230.7699 L322,195.3579 L312,185.3579 L186,185.3579 " fill="#FEFFDD" style="stroke:#181818;stroke-width:0.5;"/><path d="M312,185.3579 L312,195.3579 L322,195.3579 L312,185.3579 " fill="#FEFFDD" style="stroke:#181818;stroke-width:1.0;"/><text fill="#000000" font-family="sans-serif" font-size="13" font-weight="bold" lengthAdjust="spacing" textLength="109" x="195" y="204.2549">System requires:</text><ellipse cx="197.5" cy="218.2699" fill="#000000" rx="2.5" ry="2.5" style="stroke:#000000;stroke-width:0.0;"/><text fill="#000000" font-family="sans-serif" font-size="13" lengthAdjust="spacing" textLength="93" x="204" y="221.9609">Enter a number</text></g><g id="elem_GMN15"><path d="M86.5,274.8579 L86.5,320.2699 L205.5,320.2699 L205.5,284.8579 L195.5,274.8579 L86.5,274.8579 " fill="#FEFFDD" style="stroke:#181818;stroke-width:0.5;"/><path d="M195.5,274.8579 L195.5,284.8579 L205.5,284.8579 L195.5,274.8579 " fill="#FEFFDD" style="stroke:#181818;stroke-width:1.0;"/><text fill="#000000" font-family="sans-serif" font-size="13" font-weight="bold" lengthAdjust="spacing" textLength="92" x="95.5" y="293.7549">User provides:</text><ellipse cx="98" cy="307.7699" fill="#000000" rx="2.5" ry="2.5" style="stroke:#000000;stroke-width:0.0;"/><text fill="#000000" font-family="sans-serif" font-size="13" lengthAdjust="spacing" textLength="59" x="104.5" y="311.4609">A number</text></g><ellipse cx="143" cy="433.0679" fill="none" rx="10" ry="10" style="stroke:#222222;stroke-width:1.0;"/><ellipse cx="143.5" cy="433.5679" fill="#222222" rx="6" ry="6" style="stroke:none;stroke-width:1.0;"/><!--MD5=[52bcff81f69c4e32053e0a07a6ab73fb]
link *start*SET_NUMBER_ATTEMPTS_OR_SIZE_COMBINATION to NAS1--><g id="link_*start*SET_NUMBER_ATTEMPTS_OR_SIZE_COMBINATION_NAS1"><path d="M143,146.5079 C143,154.2479 143,165.6479 143,176.4779 " fill="none" id="*start*SET_NUMBER_ATTEMPTS_OR_SIZE_COMBINATION-to-NAS1" style="stroke:#181818;stroke-width:1.0;"/><polygon fill="#181818" points="143,181.2379,147,172.2379,143,176.2379,139,172.2379,143,181.2379" style="stroke:#181818;stroke-width:1.0;"/></g><!--MD5=[c67032d7bd26183879899351f157c9b9]
link NAS1 to NAS2--><g id="link_NAS1_NAS2"><path d="M117.51,231.5979 C104.23,243.3379 87.9,257.7679 74.02,270.0379 " fill="none" id="NAS1-to-NAS2" style="stroke:#181818;stroke-width:1.0;"/><polygon fill="#181818" points="70.54,273.1079,79.9298,270.1361,74.2833,269.7932,74.6262,264.1467,70.54,273.1079" style="stroke:#181818;stroke-width:1.0;"/></g><!--MD5=[ca46dfc56874ca630e5db042793246ca]
link NAS1 to GMN11--><g id="link_NAS1_GMN11"><path d="M168.29,208.0679 C174.8,208.0679 180,208.0679 180,208.0679 C180,208.0679 182.31,208.0679 185.78,208.0679 " fill="none" id="NAS1-GMN11" style="stroke:#181818;stroke-width:1.0;stroke-dasharray:7.0,7.0;"/></g><!--MD5=[bb722f6a006aaff8c3489ef2de64084e]
link NAS2 to NAC1--><g id="link_NAS2_NAC1"><path d="M69.35,318.9179 C73.78,322.4779 77,325.0679 77,325.0679 C77,325.0679 112.71,351.0379 131.59,364.7679 " fill="none" id="NAS2-to-NAC1" style="stroke:#181818;stroke-width:1.0;"/><polygon fill="#181818" points="135.21,367.3979,130.2876,358.8674,131.1676,364.4554,125.5796,365.3353,135.21,367.3979" style="stroke:#181818;stroke-width:1.0;"/></g><!--MD5=[6f13cb877d6276fcb35275f4697f3442]
link NAS2 to GMN15--><g id="link_NAS2_GMN15"><path d="M69.42,297.5679 C74.34,297.5679 78,297.5679 78,297.5679 C78,297.5679 81.49,297.5679 86.23,297.5679 " fill="none" id="NAS2-GMN15" style="stroke:#181818;stroke-width:1.0;stroke-dasharray:7.0,7.0;"/></g><!--MD5=[bea3dcac10c89f3d689a3261c4f79b33]
link NAC1 to NAS1--><g id="link_NAC1_NAS1"><path d="M149.9,368.4679 C167.92,356.4479 215,325.0679 215,325.0679 C215,325.0679 215,270.0679 215,270.0679 C215,270.0679 192.86,251.3079 173.13,234.5979 " fill="none" id="NAC1-to-NAS1" style="stroke:#FF0000;stroke-width:1.0;"/><polygon fill="#FF0000" points="169.34,231.3779,173.6252,240.2457,173.1564,234.6083,178.7938,234.1394,169.34,231.3779" style="stroke:#FF0000;stroke-width:1.0;"/><path d="M220,275.0679 L220,320.0679 L378,320.0679 L378,285.0679 L368,275.0679 L220,275.0679 " fill="#FEFFDD" style="stroke:#181818;stroke-width:0.5;"/><path d="M368,275.0679 L368,285.0679 L378,285.0679 L368,275.0679 " fill="#FEFFDD" style="stroke:#181818;stroke-width:0.5;"/><text fill="#000000" font-family="sans-serif" font-size="13" font-weight="bold" lengthAdjust="spacing" textLength="131" x="229" y="293.9649">System show errors:</text><ellipse cx="231.5" cy="307.9799" fill="#000000" rx="2.5" ry="2.5" style="stroke:#000000;stroke-width:0.0;"/><text fill="#000000" font-family="sans-serif" font-size="13" lengthAdjust="spacing" textLength="105" x="238" y="311.6709">Negative number</text></g><!--MD5=[94653fe75088eed5b0aee91e8f7a0d8a]
link NAC1 to *end*SET_NUMBER_ATTEMPTS_OR_SIZE_COMBINATION--><g id="link_NAC1_*end*SET_NUMBER_ATTEMPTS_OR_SIZE_COMBINATION"><path d="M143,386.5979 C143,395.1879 143,407.0079 143,416.4379 " fill="none" id="NAC1-to-*end*SET_NUMBER_ATTEMPTS_OR_SIZE_COMBINATION" style="stroke:#181818;stroke-width:1.0;"/><polygon fill="#181818" points="143,421.2979,147,412.2979,143,416.2979,139,412.2979,143,421.2979" style="stroke:#181818;stroke-width:1.0;"/></g><!--MD5=[7b8bde7b845e8eca2eba68ac39f18d58]
link *start to SET_NUMBER_ATTEMPTS_OR_SIZE_COMBINATION--><g id="link_*start_SET_NUMBER_ATTEMPTS_OR_SIZE_COMBINATION"><path d="M197,26.25 C197,36.99 197,56.22 197,79.31 " fill="none" id="*start-to-SET_NUMBER_ATTEMPTS_OR_SIZE_COMBINATION" style="stroke:#181818;stroke-width:1.0;"/><polygon fill="#181818" points="197,84.08,201,75.08,197,79.08,193,75.08,197,84.08" style="stroke:#181818;stroke-width:1.0;"/></g><!--MD5=[2e019dc90d5bcadfc70626ff62ff6909]
link SET_NUMBER_ATTEMPTS_OR_SIZE_COMBINATION to *end--><g id="link_SET_NUMBER_ATTEMPTS_OR_SIZE_COMBINATION_*end"><path d="M197,453.34 C197,475.19 197,494.14 197,506.57 " fill="none" id="SET_NUMBER_ATTEMPTS_OR_SIZE_COMBINATION-to-*end" style="stroke:#181818;stroke-width:1.0;"/><polygon fill="#181818" points="197,511.27,201,502.27,197,506.27,193,502.27,197,511.27" style="stroke:#181818;stroke-width:1.0;"/></g><!--MD5=[e4b89de78a07bf8a3f091f461064812f]
@startuml
!define EMPTY " "
!define COLOR_RED [#red]
!define COLOR_GREEN [#green]
skinparam linetype polyline

[*] - -> SET_NUMBER_ATTEMPTS_OR_SIZE_COMBINATION

state SET_NUMBER_ATTEMPTS_OR_SIZE_COMBINATION {
    state NAS1 as EMPTY
    state NAS2 as EMPTY

    state NAC1 <<choice>>

    [*] - -> NAS1
    NAS1 - -> NAS2
    note right of NAS1
        <b> System requires: </b>
        * Enter a number
    end note

    NAS2 - -> NAC1
    note right of NAS2
        <b> User provides: </b>
        * A number
    end note

    NAC1 -COLOR_RED-> NAS1
    note on link
        <b> System show errors: </b>
        * Negative number
    end note

    NAC1 - -> [*]
}

SET_NUMBER_ATTEMPTS_OR_SIZE_COMBINATION - -> [*]
@enduml

@startuml
skinparam linetype polyline

[*] - -> SET_NUMBER_ATTEMPTS_OR_SIZE_COMBINATION

state SET_NUMBER_ATTEMPTS_OR_SIZE_COMBINATION {
    state NAS1 as " "
    state NAS2 as " "

    state NAC1 <<choice>>

    [*] - -> NAS1
    NAS1 - -> NAS2
    note right of NAS1
        <b> System requires: </b>
        * Enter a number
    end note

    NAS2 - -> NAC1
    note right of NAS2
        <b> User provides: </b>
        * A number
    end note

    NAC1 -[#red]-> NAS1
    note on link
        <b> System show errors: </b>
        * Negative number
    end note

    NAC1 - -> [*]
}

SET_NUMBER_ATTEMPTS_OR_SIZE_COMBINATION - -> [*]
@enduml

PlantUML version 1.2022.7(Mon Aug 22 12:01:30 ECT 2022)
(GPL source distribution)
Java Runtime: OpenJDK Runtime Environment
JVM: OpenJDK 64-Bit Server VM
Default Encoding: UTF-8
Language: en
Country: US
--></g></svg>