<?xml version="1.0" encoding="UTF-8" standalone="no"?><svg xmlns="http://www.w3.org/2000/svg" xmlns:xlink="http://www.w3.org/1999/xlink" contentStyleType="text/css" height="830px" preserveAspectRatio="none" style="width:877px;height:830px;background:#FFFFFF;" version="1.1" viewBox="0 0 877 830" width="877px" zoomAndPan="magnify"><defs/><g><!--MD5=[b0ac5493da067f35bb6db36315f2be0c]
class ColorCombination--><g id="elem_ColorCombination"><rect codeLine="14" fill="#F1F1F1" height="181.4754" id="ColorCombination" rx="10" ry="10" style="stroke:#181818;stroke-width:0.5;" width="153" x="60.25" y="642"/><ellipse cx="75.25" cy="658" fill="#EB937F" rx="11" ry="11" style="stroke:#181818;stroke-width:1.0;"/><path d="M71.6094,664.5 L71.6094,652.3594 L79.2656,652.3594 L79.2656,654.4844 L73.9844,654.4844 L73.9844,657.1406 L79,657.1406 L79,659.2656 L73.9844,659.2656 L73.9844,662.375 L79.2656,662.375 L79.2656,664.5 L71.6094,664.5 Z " fill="#000000"/><text fill="#000000" font-family="sans-serif" font-size="14" lengthAdjust="spacing" textLength="121" x="89.25" y="663.432">ColorCombination</text><line style="stroke:#181818;stroke-width:0.5;" x1="61.25" x2="212.25" y1="674" y2="674"/><text fill="#000000" font-family="sans-serif" font-size="14" lengthAdjust="spacing" textLength="27" x="66.25" y="692.9659">RED</text><text fill="#000000" font-family="sans-serif" font-size="14" lengthAdjust="spacing" textLength="34" x="66.25" y="712.0339">BLUE</text><text fill="#000000" font-family="sans-serif" font-size="14" lengthAdjust="spacing" textLength="54" x="66.25" y="731.1018">YELLOW</text><text fill="#000000" font-family="sans-serif" font-size="14" lengthAdjust="spacing" textLength="46" x="66.25" y="750.1697">GREEN</text><text fill="#000000" font-family="sans-serif" font-size="14" lengthAdjust="spacing" textLength="58" x="66.25" y="769.2376">ORANGE</text><text fill="#000000" font-family="sans-serif" font-size="14" lengthAdjust="spacing" textLength="50" x="66.25" y="788.3055">PURPLE</text><text fill="#000000" font-family="sans-serif" font-size="14" lengthAdjust="spacing" textLength="45" x="66.25" y="807.3734">EMPTY</text><line style="stroke:#181818;stroke-width:0.5;" x1="61.25" x2="212.25" y1="815.4754" y2="815.4754"/></g><!--MD5=[8a946784ad6e8930c596f62df6b72556]
class ColorCheckCombination--><g id="elem_ColorCheckCombination"><rect codeLine="24" fill="#F1F1F1" height="105.2038" id="ColorCheckCombination" rx="10" ry="10" style="stroke:#181818;stroke-width:0.5;" width="193" x="536.25" y="680.14"/><ellipse cx="551.25" cy="696.14" fill="#EB937F" rx="11" ry="11" style="stroke:#181818;stroke-width:1.0;"/><path d="M547.6094,702.64 L547.6094,690.4994 L555.2656,690.4994 L555.2656,692.6244 L549.9844,692.6244 L549.9844,695.2806 L555,695.2806 L555,697.4056 L549.9844,697.4056 L549.9844,700.515 L555.2656,700.515 L555.2656,702.64 L547.6094,702.64 Z " fill="#000000"/><text fill="#000000" font-family="sans-serif" font-size="14" lengthAdjust="spacing" textLength="161" x="565.25" y="701.572">ColorCheckCombination</text><line style="stroke:#181818;stroke-width:0.5;" x1="537.25" x2="728.25" y1="712.14" y2="712.14"/><text fill="#000000" font-family="sans-serif" font-size="14" lengthAdjust="spacing" textLength="43" x="542.25" y="731.1059">BLACK</text><text fill="#000000" font-family="sans-serif" font-size="14" lengthAdjust="spacing" textLength="44" x="542.25" y="750.1739">WHITE</text><text fill="#000000" font-family="sans-serif" font-size="14" lengthAdjust="spacing" textLength="45" x="542.25" y="769.2418">EMPTY</text><line style="stroke:#181818;stroke-width:0.5;" x1="537.25" x2="728.25" y1="777.3438" y2="777.3438"/></g><!--MD5=[7283a9eed84464550b6d5ebf39c68b05]
class Mastermind--><g id="elem_Mastermind"><rect fill="#F1F1F1" height="48" id="Mastermind" rx="10" ry="10" style="stroke:#181818;stroke-width:0.5;" width="114" x="176.75" y="7"/><ellipse cx="191.75" cy="23" fill="#ADD1B2" rx="11" ry="11" style="stroke:#181818;stroke-width:1.0;"/><path d="M191.2188,29.9219 Q189.4688,29.9219 188.3281,29.1875 Q187.2031,28.4375 186.6406,27.0938 Q186.0938,25.7344 186.0938,23.9375 Q186.0938,21.9063 186.75,20.4531 Q187.4063,19 188.6875,18.2188 Q189.9688,17.4375 191.8438,17.4375 Q192.7344,17.4375 193.4063,17.625 Q194.0781,17.7969 194.7656,18.1406 L193.9531,20.1563 Q193.3281,19.8438 192.7813,19.7188 Q192.25,19.5938 191.7656,19.5938 Q190.5938,19.5938 189.8906,20.125 Q189.1875,20.6563 188.8906,21.6094 Q188.5938,22.5625 188.5938,23.8281 Q188.5938,25.8438 189.3125,26.8125 Q190.0313,27.7656 191.625,27.7656 Q192.2188,27.7656 192.8438,27.6094 Q193.4688,27.4531 194.2969,27.0781 L194.2969,29.2969 Q193.5625,29.6094 192.7656,29.7656 Q191.9844,29.9219 191.2188,29.9219 Z " fill="#000000"/><text fill="#000000" font-family="sans-serif" font-size="14" lengthAdjust="spacing" textLength="82" x="205.75" y="28.432">Mastermind</text><line style="stroke:#181818;stroke-width:0.5;" x1="177.75" x2="289.75" y1="39" y2="39"/><line style="stroke:#181818;stroke-width:0.5;" x1="177.75" x2="289.75" y1="47" y2="47"/></g><!--MD5=[9563755d011c5cec7ec66dc53565a59e]
class Board--><g id="elem_Board"><rect fill="#F1F1F1" height="48" id="Board" rx="10" ry="10" style="stroke:#181818;stroke-width:0.5;" width="72" x="93.75" y="388"/><ellipse cx="108.75" cy="404" fill="#ADD1B2" rx="11" ry="11" style="stroke:#181818;stroke-width:1.0;"/><path d="M108.2188,410.9219 Q106.4688,410.9219 105.3281,410.1875 Q104.2031,409.4375 103.6406,408.0938 Q103.0938,406.7344 103.0938,404.9375 Q103.0938,402.9063 103.75,401.4531 Q104.4063,400 105.6875,399.2188 Q106.9688,398.4375 108.8438,398.4375 Q109.7344,398.4375 110.4063,398.625 Q111.0781,398.7969 111.7656,399.1406 L110.9531,401.1563 Q110.3281,400.8438 109.7813,400.7188 Q109.25,400.5938 108.7656,400.5938 Q107.5938,400.5938 106.8906,401.125 Q106.1875,401.6563 105.8906,402.6094 Q105.5938,403.5625 105.5938,404.8281 Q105.5938,406.8438 106.3125,407.8125 Q107.0313,408.7656 108.625,408.7656 Q109.2188,408.7656 109.8438,408.6094 Q110.4688,408.4531 111.2969,408.0781 L111.2969,410.2969 Q110.5625,410.6094 109.7656,410.7656 Q108.9844,410.9219 108.2188,410.9219 Z " fill="#000000"/><text fill="#000000" font-family="sans-serif" font-size="14" lengthAdjust="spacing" textLength="40" x="122.75" y="409.432">Board</text><line style="stroke:#181818;stroke-width:0.5;" x1="94.75" x2="164.75" y1="420" y2="420"/><line style="stroke:#181818;stroke-width:0.5;" x1="94.75" x2="164.75" y1="428" y2="428"/></g><!--MD5=[dd91eae41778c45e12552e5329e240e8]
class Turn--><g id="elem_Turn"><rect fill="#F1F1F1" height="48" id="Turn" rx="10" ry="10" style="stroke:#181818;stroke-width:0.5;" width="64" x="201.75" y="134"/><ellipse cx="216.75" cy="150" fill="#ADD1B2" rx="11" ry="11" style="stroke:#181818;stroke-width:1.0;"/><path d="M216.2188,156.9219 Q214.4688,156.9219 213.3281,156.1875 Q212.2031,155.4375 211.6406,154.0938 Q211.0938,152.7344 211.0938,150.9375 Q211.0938,148.9063 211.75,147.4531 Q212.4063,146 213.6875,145.2188 Q214.9688,144.4375 216.8438,144.4375 Q217.7344,144.4375 218.4063,144.625 Q219.0781,144.7969 219.7656,145.1406 L218.9531,147.1563 Q218.3281,146.8438 217.7813,146.7188 Q217.25,146.5938 216.7656,146.5938 Q215.5938,146.5938 214.8906,147.125 Q214.1875,147.6563 213.8906,148.6094 Q213.5938,149.5625 213.5938,150.8281 Q213.5938,152.8438 214.3125,153.8125 Q215.0313,154.7656 216.625,154.7656 Q217.2188,154.7656 217.8438,154.6094 Q218.4688,154.4531 219.2969,154.0781 L219.2969,156.2969 Q218.5625,156.6094 217.7656,156.7656 Q216.9844,156.9219 216.2188,156.9219 Z " fill="#000000"/><text fill="#000000" font-family="sans-serif" font-size="14" lengthAdjust="spacing" textLength="32" x="230.75" y="155.432">Turn</text><line style="stroke:#181818;stroke-width:0.5;" x1="202.75" x2="264.75" y1="166" y2="166"/><line style="stroke:#181818;stroke-width:0.5;" x1="202.75" x2="264.75" y1="174" y2="174"/></g><!--MD5=[2cb47ba637a0d19583e6199456f6ad0b]
class Player--><g id="elem_Player"><rect fill="#F1F1F1" height="48" id="Player" rx="10" ry="10" style="stroke:#181818;stroke-width:0.5;" width="73" x="299.25" y="261"/><ellipse cx="314.25" cy="277" fill="#ADD1B2" rx="11" ry="11" style="stroke:#181818;stroke-width:1.0;"/><path d="M313.7188,283.9219 Q311.9688,283.9219 310.8281,283.1875 Q309.7031,282.4375 309.1406,281.0938 Q308.5938,279.7344 308.5938,277.9375 Q308.5938,275.9063 309.25,274.4531 Q309.9063,273 311.1875,272.2188 Q312.4688,271.4375 314.3438,271.4375 Q315.2344,271.4375 315.9063,271.625 Q316.5781,271.7969 317.2656,272.1406 L316.4531,274.1563 Q315.8281,273.8438 315.2813,273.7188 Q314.75,273.5938 314.2656,273.5938 Q313.0938,273.5938 312.3906,274.125 Q311.6875,274.6563 311.3906,275.6094 Q311.0938,276.5625 311.0938,277.8281 Q311.0938,279.8438 311.8125,280.8125 Q312.5313,281.7656 314.125,281.7656 Q314.7188,281.7656 315.3438,281.6094 Q315.9688,281.4531 316.7969,281.0781 L316.7969,283.2969 Q316.0625,283.6094 315.2656,283.7656 Q314.4844,283.9219 313.7188,283.9219 Z " fill="#000000"/><text fill="#000000" font-family="sans-serif" font-size="14" lengthAdjust="spacing" textLength="41" x="328.25" y="282.432">Player</text><line style="stroke:#181818;stroke-width:0.5;" x1="300.25" x2="371.25" y1="293" y2="293"/><line style="stroke:#181818;stroke-width:0.5;" x1="300.25" x2="371.25" y1="301" y2="301"/></g><!--MD5=[e370ee5c0c15ce04544d5f5a73174d72]
class SecretCombination--><g id="elem_SecretCombination"><rect fill="#F1F1F1" height="48" id="SecretCombination" rx="10" ry="10" style="stroke:#181818;stroke-width:0.5;" width="160" x="56.75" y="515"/><ellipse cx="71.75" cy="531" fill="#ADD1B2" rx="11" ry="11" style="stroke:#181818;stroke-width:1.0;"/><path d="M71.2188,537.9219 Q69.4688,537.9219 68.3281,537.1875 Q67.2031,536.4375 66.6406,535.0938 Q66.0938,533.7344 66.0938,531.9375 Q66.0938,529.9063 66.75,528.4531 Q67.4063,527 68.6875,526.2188 Q69.9688,525.4375 71.8438,525.4375 Q72.7344,525.4375 73.4063,525.625 Q74.0781,525.7969 74.7656,526.1406 L73.9531,528.1563 Q73.3281,527.8438 72.7813,527.7188 Q72.25,527.5938 71.7656,527.5938 Q70.5938,527.5938 69.8906,528.125 Q69.1875,528.6563 68.8906,529.6094 Q68.5938,530.5625 68.5938,531.8281 Q68.5938,533.8438 69.3125,534.8125 Q70.0313,535.7656 71.625,535.7656 Q72.2188,535.7656 72.8438,535.6094 Q73.4688,535.4531 74.2969,535.0781 L74.2969,537.2969 Q73.5625,537.6094 72.7656,537.7656 Q71.9844,537.9219 71.2188,537.9219 Z " fill="#000000"/><text fill="#000000" font-family="sans-serif" font-size="14" lengthAdjust="spacing" textLength="128" x="85.75" y="536.432">SecretCombination</text><line style="stroke:#181818;stroke-width:0.5;" x1="57.75" x2="215.75" y1="547" y2="547"/><line style="stroke:#181818;stroke-width:0.5;" x1="57.75" x2="215.75" y1="555" y2="555"/></g><!--MD5=[cf489b19c51ee25e76ddca093e62e620]
class ProposedCombination--><g id="elem_ProposedCombination"><rect fill="#F1F1F1" height="48" id="ProposedCombination" rx="10" ry="10" style="stroke:#181818;stroke-width:0.5;" width="181" x="251.25" y="515"/><ellipse cx="266.25" cy="531" fill="#ADD1B2" rx="11" ry="11" style="stroke:#181818;stroke-width:1.0;"/><path d="M265.7188,537.9219 Q263.9688,537.9219 262.8281,537.1875 Q261.7031,536.4375 261.1406,535.0938 Q260.5938,533.7344 260.5938,531.9375 Q260.5938,529.9063 261.25,528.4531 Q261.9063,527 263.1875,526.2188 Q264.4688,525.4375 266.3438,525.4375 Q267.2344,525.4375 267.9063,525.625 Q268.5781,525.7969 269.2656,526.1406 L268.4531,528.1563 Q267.8281,527.8438 267.2813,527.7188 Q266.75,527.5938 266.2656,527.5938 Q265.0938,527.5938 264.3906,528.125 Q263.6875,528.6563 263.3906,529.6094 Q263.0938,530.5625 263.0938,531.8281 Q263.0938,533.8438 263.8125,534.8125 Q264.5313,535.7656 266.125,535.7656 Q266.7188,535.7656 267.3438,535.6094 Q267.9688,535.4531 268.7969,535.0781 L268.7969,537.2969 Q268.0625,537.6094 267.2656,537.7656 Q266.4844,537.9219 265.7188,537.9219 Z " fill="#000000"/><text fill="#000000" font-family="sans-serif" font-size="14" lengthAdjust="spacing" textLength="149" x="280.25" y="536.432">ProposedCombination</text><line style="stroke:#181818;stroke-width:0.5;" x1="252.25" x2="431.25" y1="547" y2="547"/><line style="stroke:#181818;stroke-width:0.5;" x1="252.25" x2="431.25" y1="555" y2="555"/></g><!--MD5=[372536e952a93b77bd3efa542d84a0f8]
class CheckCombination--><g id="elem_CheckCombination"><rect fill="#F1F1F1" height="48" id="CheckCombination" rx="10" ry="10" style="stroke:#181818;stroke-width:0.5;" width="158" x="401.75" y="388"/><ellipse cx="416.75" cy="404" fill="#ADD1B2" rx="11" ry="11" style="stroke:#181818;stroke-width:1.0;"/><path d="M416.2188,410.9219 Q414.4688,410.9219 413.3281,410.1875 Q412.2031,409.4375 411.6406,408.0938 Q411.0938,406.7344 411.0938,404.9375 Q411.0938,402.9063 411.75,401.4531 Q412.4063,400 413.6875,399.2188 Q414.9688,398.4375 416.8438,398.4375 Q417.7344,398.4375 418.4063,398.625 Q419.0781,398.7969 419.7656,399.1406 L418.9531,401.1563 Q418.3281,400.8438 417.7813,400.7188 Q417.25,400.5938 416.7656,400.5938 Q415.5938,400.5938 414.8906,401.125 Q414.1875,401.6563 413.8906,402.6094 Q413.5938,403.5625 413.5938,404.8281 Q413.5938,406.8438 414.3125,407.8125 Q415.0313,408.7656 416.625,408.7656 Q417.2188,408.7656 417.8438,408.6094 Q418.4688,408.4531 419.2969,408.0781 L419.2969,410.2969 Q418.5625,410.6094 417.7656,410.7656 Q416.9844,410.9219 416.2188,410.9219 Z " fill="#000000"/><text fill="#000000" font-family="sans-serif" font-size="14" lengthAdjust="spacing" textLength="126" x="430.75" y="409.432">CheckCombination</text><line style="stroke:#181818;stroke-width:0.5;" x1="402.75" x2="558.75" y1="420" y2="420"/><line style="stroke:#181818;stroke-width:0.5;" x1="402.75" x2="558.75" y1="428" y2="428"/></g><!--MD5=[c7e5f556c47c75e121fb73539b1ff085]
class CorrectlyCombination--><g id="elem_CorrectlyCombination"><rect fill="#F1F1F1" height="48" id="CorrectlyCombination" rx="10" ry="10" style="stroke:#181818;stroke-width:0.5;" width="178" x="692.75" y="515"/><ellipse cx="707.75" cy="531" fill="#ADD1B2" rx="11" ry="11" style="stroke:#181818;stroke-width:1.0;"/><path d="M707.2188,537.9219 Q705.4688,537.9219 704.3281,537.1875 Q703.2031,536.4375 702.6406,535.0938 Q702.0938,533.7344 702.0938,531.9375 Q702.0938,529.9063 702.75,528.4531 Q703.4063,527 704.6875,526.2188 Q705.9688,525.4375 707.8438,525.4375 Q708.7344,525.4375 709.4063,525.625 Q710.0781,525.7969 710.7656,526.1406 L709.9531,528.1563 Q709.3281,527.8438 708.7813,527.7188 Q708.25,527.5938 707.7656,527.5938 Q706.5938,527.5938 705.8906,528.125 Q705.1875,528.6563 704.8906,529.6094 Q704.5938,530.5625 704.5938,531.8281 Q704.5938,533.8438 705.3125,534.8125 Q706.0313,535.7656 707.625,535.7656 Q708.2188,535.7656 708.8438,535.6094 Q709.4688,535.4531 710.2969,535.0781 L710.2969,537.2969 Q709.5625,537.6094 708.7656,537.7656 Q707.9844,537.9219 707.2188,537.9219 Z " fill="#000000"/><text fill="#000000" font-family="sans-serif" font-size="14" lengthAdjust="spacing" textLength="146" x="721.75" y="536.432">CorrectlyCombination</text><line style="stroke:#181818;stroke-width:0.5;" x1="693.75" x2="869.75" y1="547" y2="547"/><line style="stroke:#181818;stroke-width:0.5;" x1="693.75" x2="869.75" y1="555" y2="555"/></g><!--MD5=[c974cbb1a5b4f02f0f0f464b16bb2c9f]
class IncorrectlyCombination--><g id="elem_IncorrectlyCombination"><rect fill="#F1F1F1" height="48" id="IncorrectlyCombination" rx="10" ry="10" style="stroke:#181818;stroke-width:0.5;" width="190" x="467.75" y="515"/><ellipse cx="482.75" cy="531" fill="#ADD1B2" rx="11" ry="11" style="stroke:#181818;stroke-width:1.0;"/><path d="M482.2188,537.9219 Q480.4688,537.9219 479.3281,537.1875 Q478.2031,536.4375 477.6406,535.0938 Q477.0938,533.7344 477.0938,531.9375 Q477.0938,529.9063 477.75,528.4531 Q478.4063,527 479.6875,526.2188 Q480.9688,525.4375 482.8438,525.4375 Q483.7344,525.4375 484.4063,525.625 Q485.0781,525.7969 485.7656,526.1406 L484.9531,528.1563 Q484.3281,527.8438 483.7813,527.7188 Q483.25,527.5938 482.7656,527.5938 Q481.5938,527.5938 480.8906,528.125 Q480.1875,528.6563 479.8906,529.6094 Q479.5938,530.5625 479.5938,531.8281 Q479.5938,533.8438 480.3125,534.8125 Q481.0313,535.7656 482.625,535.7656 Q483.2188,535.7656 483.8438,535.6094 Q484.4688,535.4531 485.2969,535.0781 L485.2969,537.2969 Q484.5625,537.6094 483.7656,537.7656 Q482.9844,537.9219 482.2188,537.9219 Z " fill="#000000"/><text fill="#000000" font-family="sans-serif" font-size="14" lengthAdjust="spacing" textLength="158" x="496.75" y="536.432">IncorrectlyCombination</text><line style="stroke:#181818;stroke-width:0.5;" x1="468.75" x2="656.75" y1="547" y2="547"/><line style="stroke:#181818;stroke-width:0.5;" x1="468.75" x2="656.75" y1="555" y2="555"/></g><!--MD5=[ba28573f2062cf9f5d1d4aa517f0cc38]
link Mastermind to Board--><g id="link_Mastermind_Board"><path codeLine="31" d="M213.7421,67.0293 C213.7421,67.0293 191.42,111.18 183.75,134 C155.78,217.25 140.5,319.7 133.86,373.67 " fill="none" id="Mastermind-Board" style="stroke:#181818;stroke-width:1.0;"/><polygon fill="#181818" points="132.35,386.36,137.3812,377.8932,132.9384,381.3947,129.4368,376.9518,132.35,386.36" style="stroke:#181818;stroke-width:1.0;"/><line style="stroke:#181818;stroke-width:1.0;" x1="132.9384" x2="133.885" y1="381.3947" y2="373.445"/><polygon fill="#181818" points="219.48,56.49,213.098,59.847,213.7421,67.0293,220.1241,63.6723,219.48,56.49" style="stroke:#181818;stroke-width:1.0;"/><text fill="#000000" font-family="sans-serif" font-size="13" lengthAdjust="spacing" textLength="20" x="162.75" y="226.897">1..1</text></g><!--MD5=[f95f66ed9d6e0f523703ae56e87204e4]
link Mastermind to Turn--><g id="link_Mastermind_Turn"><path codeLine="32" d="M233.75,68.74 C233.75,68.74 233.75,103.83 233.75,119.68 " fill="none" id="Mastermind-Turn" style="stroke:#181818;stroke-width:1.0;"/><polygon fill="#181818" points="233.75,132.4,237.75,123.4,233.75,127.4,229.75,123.4,233.75,132.4" style="stroke:#181818;stroke-width:1.0;"/><line style="stroke:#181818;stroke-width:1.0;" x1="233.75" x2="233.75" y1="127.4" y2="119.4"/><polygon fill="#181818" points="233.75,56.74,229.75,62.74,233.75,68.74,237.75,62.74,233.75,56.74" style="stroke:#181818;stroke-width:1.0;"/><text fill="#000000" font-family="sans-serif" font-size="13" lengthAdjust="spacing" textLength="20" x="234.75" y="99.897">1..1</text></g><!--MD5=[d81713d91ad05be3b975338c4816ee0b]
link Turn to Player--><g id="link_Turn_Player"><path codeLine="33" d="M250.48,182.45 C260.89,196.73 274.72,215.21 287.75,231 C294.55,239.25 302.21,247.95 309.38,255.86 " fill="none" id="Turn-to-Player" style="stroke:#181818;stroke-width:1.0;"/><polygon fill="#181818" points="312.75,259.55,309.6449,250.2034,309.3824,255.8542,303.7316,255.5916,312.75,259.55" style="stroke:#181818;stroke-width:1.0;"/><text fill="#000000" font-family="sans-serif" font-size="13" lengthAdjust="spacing" textLength="20" x="288.75" y="226.897">1..1</text></g><!--MD5=[af4d99cd4784731f062880949247790a]
link Mastermind to Player--><g id="link_Mastermind_Player"><path codeLine="34" d="M254.4725,67.1793 C254.4725,67.1793 261.05,79.44 263.75,85 C290.2,139.59 293.98,154.65 313.75,212 C317.6,223.17 321.47,235.43 324.87,246.62 " fill="none" id="Mastermind-Player" style="stroke:#181818;stroke-width:1.0;"/><polygon fill="#181818" points="328.59,259.07,329.8413,249.301,327.1563,254.28,322.1773,251.5949,328.59,259.07" style="stroke:#181818;stroke-width:1.0;"/><line style="stroke:#181818;stroke-width:1.0;" x1="327.1563" x2="324.87" y1="254.28" y2="246.615"/><polygon fill="#181818" points="248.59,56.72,248.0448,63.9105,254.4725,67.1793,255.0177,59.9888,248.59,56.72" style="stroke:#181818;stroke-width:1.0;"/><text fill="#000000" font-family="sans-serif" font-size="13" lengthAdjust="spacing" textLength="20" x="303.75" y="163.397">2..2</text></g><!--MD5=[03ca4049e20658053bcdfb612f7e56a0]
link Board to ColorCombination--><g id="link_Board_ColorCombination"><path codeLine="35" d="M93.43,433.45 C66.13,451.1 30.78,479.35 14.75,515 C6,534.46 8.18,542.71 14.75,563 C23.74,590.78 39.19,617.82 56.15,641.83 " fill="none" id="Board-to-ColorCombination" style="stroke:#181818;stroke-width:1.0;stroke-dasharray:7.0,7.0;"/><polygon fill="#181818" points="58.9,645.68,56.8981,636.0367,55.983,641.6191,50.4007,640.7039,58.9,645.68" style="stroke:#181818;stroke-width:1.0;"/><text fill="#000000" font-family="sans-serif" font-size="13" lengthAdjust="spacing" textLength="23" x="15.75" y="544.397">1..N</text></g><!--MD5=[5e915b8ab835b2366405aaf6901e131b]
link Board to SecretCombination--><g id="link_Board_SecretCombination"><path codeLine="36" d="M131.8029,449.7111 C131.8029,449.7111 133.77,484.83 134.66,500.68 " fill="none" id="Board-SecretCombination" style="stroke:#181818;stroke-width:1.0;"/><polygon fill="#181818" points="135.37,513.4,138.8697,504.1939,135.0954,508.4075,130.8817,504.6333,135.37,513.4" style="stroke:#181818;stroke-width:1.0;"/><line style="stroke:#181818;stroke-width:1.0;" x1="135.0954" x2="134.645" y1="508.4075" y2="500.42"/><polygon fill="#181818" points="131.13,437.73,127.4728,443.9449,131.8029,449.7111,135.4602,443.4962,131.13,437.73" style="stroke:#181818;stroke-width:1.0;"/><text fill="#000000" font-family="sans-serif" font-size="13" lengthAdjust="spacing" textLength="20" x="134.75" y="480.897">1..1</text></g><!--MD5=[e0b5d9907fda64872c10fd6493e0c51f]
link Board to ProposedCombination--><g id="link_Board_ProposedCombination"><path codeLine="37" d="M177.8385,441.3523 C177.8385,441.3523 255.7,487.27 289.69,507.31 " fill="none" id="Board-ProposedCombination" style="stroke:#181818;stroke-width:1.0;"/><polygon fill="#181818" points="300.88,513.91,295.1614,505.8914,296.5737,511.3691,291.096,512.7815,300.88,513.91" style="stroke:#181818;stroke-width:1.0;"/><line style="stroke:#181818;stroke-width:1.0;" x1="296.5737" x2="289.68" y1="511.3691" y2="507.305"/><polygon fill="#181818" points="167.5,435.26,170.6385,441.7523,177.8385,441.3523,174.7,434.86,167.5,435.26" style="stroke:#181818;stroke-width:1.0;"/><text fill="#000000" font-family="sans-serif" font-size="13" lengthAdjust="spacing" textLength="23" x="249.75" y="480.897">1..N</text></g><!--MD5=[c61644a5b35eeaa9e21186f22393997e]
link Player to ProposedCombination--><g id="link_Player_ProposedCombination"><path codeLine="38" d="M336.3,309.26 C337.4,355.3 339.84,457.96 341.05,508.6 " fill="none" id="Player-to-ProposedCombination" style="stroke:#181818;stroke-width:1.0;"/><polygon fill="#181818" points="341.16,513.29,344.9533,504.2009,341.0457,508.2913,336.9554,504.3838,341.16,513.29" style="stroke:#181818;stroke-width:1.0;"/><text fill="#000000" font-family="sans-serif" font-size="13" lengthAdjust="spacing" textLength="23" x="339.75" y="417.397">1..N</text></g><!--MD5=[b03f8401804a13adfd48aae8d573327d]
link Player to SecretCombination--><g id="link_Player_SecretCombination"><path codeLine="39" d="M317.38,309.26 C280.73,355.67 198.63,459.64 159,509.83 " fill="none" id="Player-to-SecretCombination" style="stroke:#181818;stroke-width:1.0;"/><polygon fill="#181818" points="156.01,513.62,164.7252,509.0326,159.1073,509.6949,158.445,504.0769,156.01,513.62" style="stroke:#181818;stroke-width:1.0;"/><text fill="#000000" font-family="sans-serif" font-size="13" lengthAdjust="spacing" textLength="20" x="254.75" y="417.397">1..1</text></g><!--MD5=[f8d006ebbb098e90f7f7ca7a5314034c]
link SecretCombination to ColorCombination--><g id="link_SecretCombination_ColorCombination"><path codeLine="40" d="M136.75,563.13 C136.75,581.39 136.75,608.19 136.75,635.07 " fill="none" id="SecretCombination-to-ColorCombination" style="stroke:#181818;stroke-width:1.0;stroke-dasharray:7.0,7.0;"/><polygon fill="#181818" points="136.75,640.02,140.75,631.02,136.75,635.02,132.75,631.02,136.75,640.02" style="stroke:#181818;stroke-width:1.0;"/><text fill="#000000" font-family="sans-serif" font-size="13" lengthAdjust="spacing" textLength="7" x="137.75" y="607.897">5</text></g><!--MD5=[fa87d7d851d7b69291be799fd42835a7]
link ProposedCombination to ColorCombination--><g id="link_ProposedCombination_ColorCombination"><path codeLine="41" d="M317.02,563.13 C292.56,586.01 253.77,622.29 218.42,655.35 " fill="none" id="ProposedCombination-to-ColorCombination" style="stroke:#181818;stroke-width:1.0;stroke-dasharray:7.0,7.0;"/><polygon fill="#181818" points="214.79,658.75,224.0853,655.4945,218.431,655.3232,218.6023,649.6689,214.79,658.75" style="stroke:#181818;stroke-width:1.0;"/><text fill="#000000" font-family="sans-serif" font-size="13" lengthAdjust="spacing" textLength="7" x="281.75" y="607.897">5</text></g><!--MD5=[f84de3e498c9b39e1c799ae23305b82d]
link Player to CheckCombination--><g id="link_Player_CheckCombination"><path codeLine="42" d="M362.68,309.22 C387.2,330.36 423.41,361.58 449.26,383.86 " fill="none" id="Player-to-CheckCombination" style="stroke:#181818;stroke-width:1.0;"/><polygon fill="#181818" points="452.81,386.92,448.6157,378.0089,449.0268,383.6508,443.385,384.0619,452.81,386.92" style="stroke:#181818;stroke-width:1.0;"/><text fill="#000000" font-family="sans-serif" font-size="13" lengthAdjust="spacing" textLength="23" x="417.75" y="353.897">1..N</text></g><!--MD5=[4cd0c90a18f8fab183e72ac525ca41d1]
link CheckCombination to SecretCombination--><g id="link_CheckCombination_SecretCombination"><path codeLine="43" d="M416.45,436.37 C356.92,458 268.58,490.1 207.17,512.41 " fill="none" id="CheckCombination-to-SecretCombination" style="stroke:#181818;stroke-width:1.0;stroke-dasharray:7.0,7.0;"/><polygon fill="#181818" points="202.74,514.03,212.5639,514.7303,207.4419,512.3293,209.8428,507.2073,202.74,514.03" style="stroke:#181818;stroke-width:1.0;"/><text fill="#000000" font-family="sans-serif" font-size="13" lengthAdjust="spacing" textLength="20" x="329.75" y="480.897">1..1</text></g><!--MD5=[2ac60ef47bf16d6718c0a54dd9e9c122]
link CheckCombination to ProposedCombination--><g id="link_CheckCombination_ProposedCombination"><path codeLine="44" d="M470.44,436.2 C462.8,451.46 451.22,471.1 436.75,485 C426.14,495.2 413.2,504.09 400.32,511.54 " fill="none" id="CheckCombination-to-ProposedCombination" style="stroke:#181818;stroke-width:1.0;stroke-dasharray:7.0,7.0;"/><polygon fill="#181818" points="396.13,513.9,405.9342,512.9633,400.4852,511.4439,402.0045,505.9949,396.13,513.9" style="stroke:#181818;stroke-width:1.0;"/><text fill="#000000" font-family="sans-serif" font-size="13" lengthAdjust="spacing" textLength="20" x="451.75" y="480.897">1..1</text></g><!--MD5=[0c13cf970a13c35e8c4d3a5690d0e878]
link CheckCombination to CorrectlyCombination--><g id="link_CheckCombination_CorrectlyCombination"><path codeLine="45" d="M549.4935,441.5495 C549.4935,441.5495 663.31,488.82 711.97,509.03 " fill="none" id="CheckCombination-CorrectlyCombination" style="stroke:#181818;stroke-width:1.0;"/><polygon fill="#181818" points="723.85,513.96,717.0705,506.8159,719.2319,512.0436,714.0042,514.2049,723.85,513.96" style="stroke:#181818;stroke-width:1.0;"/><line style="stroke:#181818;stroke-width:1.0;" x1="719.2319" x2="711.845" y1="512.0436" y2="508.975"/><polygon fill="#181818" points="538.41,436.95,542.4186,442.9442,549.4935,441.5495,545.4849,435.5552,538.41,436.95" style="stroke:#181818;stroke-width:1.0;"/><text fill="#000000" font-family="sans-serif" font-size="13" lengthAdjust="spacing" textLength="20" x="649.75" y="480.897">1..5</text></g><!--MD5=[060d5ce87929d3c3ae9befb5f4c54c52]
link CheckCombination to IncorrectlyCombination--><g id="link_CheckCombination_IncorrectlyCombination"><path codeLine="46" d="M503.3901,447.525 C503.3901,447.525 528.47,485.75 539.7,502.87 " fill="none" id="CheckCombination-IncorrectlyCombination" style="stroke:#181818;stroke-width:1.0;"/><polygon fill="#181818" points="546.77,513.64,545.1799,503.9203,544.0283,509.4587,538.4899,508.3071,546.77,513.64" style="stroke:#181818;stroke-width:1.0;"/><line style="stroke:#181818;stroke-width:1.0;" x1="544.0283" x2="539.635" y1="509.4587" y2="502.775"/><polygon fill="#181818" points="496.81,437.49,496.7551,444.7009,503.3901,447.525,503.4451,440.3141,496.81,437.49" style="stroke:#181818;stroke-width:1.0;"/><text fill="#000000" font-family="sans-serif" font-size="13" lengthAdjust="spacing" textLength="20" x="526.75" y="480.897">1..5</text></g><!--MD5=[45809f86c82dc9065241998e0149d38f]
link CorrectlyCombination to ColorCheckCombination--><g id="link_CorrectlyCombination_ColorCheckCombination"><path codeLine="47" d="M763.77,563.13 C742.37,590.68 705.85,637.67 676.8,675.05 " fill="none" id="CorrectlyCombination-to-ColorCheckCombination" style="stroke:#181818;stroke-width:1.0;stroke-dasharray:7.0,7.0;"/><polygon fill="#181818" points="673.86,678.83,682.5464,674.1881,676.9327,674.8855,676.2352,669.2719,673.86,678.83" style="stroke:#181818;stroke-width:1.0;"/><text fill="#000000" font-family="sans-serif" font-size="13" lengthAdjust="spacing" textLength="20" x="737.75" y="607.897">1..1</text></g><!--MD5=[a7fe46fe8961ebe0b7d01a5c7fc088ca]
link IncorrectlyCombination to ColorCheckCombination--><g id="link_IncorrectlyCombination_ColorCheckCombination"><path codeLine="48" d="M571.19,563.13 C581.17,590.46 598.12,636.9 611.72,674.14 " fill="none" id="IncorrectlyCombination-to-ColorCheckCombination" style="stroke:#181818;stroke-width:1.0;stroke-dasharray:7.0,7.0;"/><polygon fill="#181818" points="613.35,678.61,614.0239,668.7842,611.6367,673.9127,606.5082,671.5255,613.35,678.61" style="stroke:#181818;stroke-width:1.0;"/><text fill="#000000" font-family="sans-serif" font-size="13" lengthAdjust="spacing" textLength="20" x="587.75" y="607.897">1..1</text></g><!--MD5=[aa07af2e75ed3a71aee13f3b312bd0ed]
@startuml
skinparam roundcorner 20

!define ONE_TO_ONE 1..1
!define TWO_TO_TWO 2..2
!define ONE_TO_MANY 1..N
!define ONE_TO_FIVE 1..5

!define compositionRelation(all, part, cardinality) all *- -> part: cardinality
!define associationRelation(client, server, cardinality) client - -> server: cardinality
!define aggregationRelation(whole, part, cardinality) whole o- -> part: cardinality
!define useRelation(user, used, cardinality) user ..> used: cardinality
!define inheritanceRelation(child, parent, cardinality) child <|- - parent: cardinality

enum ColorCombination {
  RED
  BLUE
  YELLOW
  GREEN
  ORANGE
  PURPLE
  EMPTY
}

enum ColorCheckCombination {
   BLACK
   WHITE
   EMPTY
}


compositionRelation(Mastermind, Board, ONE_TO_ONE)
compositionRelation(Mastermind, Turn, ONE_TO_ONE)
associationRelation(Turn, Player, ONE_TO_ONE)
compositionRelation(Mastermind, Player, TWO_TO_TWO)
useRelation(Board, ColorCombination, ONE_TO_MANY)
compositionRelation(Board, SecretCombination, ONE_TO_ONE)
compositionRelation(Board, ProposedCombination, ONE_TO_MANY)
associationRelation(Player, ProposedCombination, ONE_TO_MANY)
associationRelation(Player, SecretCombination, ONE_TO_ONE)
useRelation(SecretCombination, ColorCombination, 5)
useRelation(ProposedCombination, ColorCombination, 5)
associationRelation(Player, CheckCombination, ONE_TO_MANY)
useRelation(CheckCombination, SecretCombination, ONE_TO_ONE)
useRelation(CheckCombination, ProposedCombination, ONE_TO_ONE)
compositionRelation(CheckCombination, CorrectlyCombination, ONE_TO_FIVE)
compositionRelation(CheckCombination, IncorrectlyCombination, ONE_TO_FIVE)
useRelation(CorrectlyCombination, ColorCheckCombination, ONE_TO_ONE)
useRelation(IncorrectlyCombination, ColorCheckCombination, ONE_TO_ONE)
@enduml

@startuml
skinparam roundcorner 20



enum ColorCombination {
  RED
  BLUE
  YELLOW
  GREEN
  ORANGE
  PURPLE
  EMPTY
}

enum ColorCheckCombination {
   BLACK
   WHITE
   EMPTY
}


Mastermind *- -> Board: 1..1
Mastermind *- -> Turn: 1..1
Turn - -> Player: 1..1
Mastermind *- -> Player: 2..2
Board ..> ColorCombination: 1..N
Board *- -> SecretCombination: 1..1
Board *- -> ProposedCombination: 1..N
Player - -> ProposedCombination: 1..N
Player - -> SecretCombination: 1..1
SecretCombination ..> ColorCombination: 5
ProposedCombination ..> ColorCombination: 5
Player - -> CheckCombination: 1..N
CheckCombination ..> SecretCombination: 1..1
CheckCombination ..> ProposedCombination: 1..1
CheckCombination *- -> CorrectlyCombination: 1..5
CheckCombination *- -> IncorrectlyCombination: 1..5
CorrectlyCombination ..> ColorCheckCombination: 1..1
IncorrectlyCombination ..> ColorCheckCombination: 1..1
@enduml

PlantUML version 1.2022.7(Mon Aug 22 12:01:30 ECT 2022)
(GPL source distribution)
Java Runtime: OpenJDK Runtime Environment
JVM: OpenJDK 64-Bit Server VM
Default Encoding: UTF-8
Language: en
Country: US
--></g></svg>