<?xml version="1.0" encoding="us-ascii" standalone="no"?><svg xmlns="http://www.w3.org/2000/svg" xmlns:xlink="http://www.w3.org/1999/xlink" contentStyleType="text/css" height="830px" preserveAspectRatio="none" style="width:878px;height:830px;background:#FFFFFF;" version="1.1" viewBox="0 0 878 830" width="878px" zoomAndPan="magnify"><defs/><g><!--class ColorCombination--><g id="elem_ColorCombination"><rect codeLine="14" fill="#F1F1F1" height="181.4754" id="ColorCombination" rx="10" ry="10" style="stroke:#181818;stroke-width:0.5;" width="153" x="71.8" y="642"/><ellipse cx="86.8" cy="658" fill="#EB937F" rx="11" ry="11" style="stroke:#181818;stroke-width:1.0;"/><path d="M83.1594,664.5 L83.1594,652.3594 L90.8156,652.3594 L90.8156,654.4844 L85.5344,654.4844 L85.5344,657.1406 L90.55,657.1406 L90.55,659.2656 L85.5344,659.2656 L85.5344,662.375 L90.8156,662.375 L90.8156,664.5 L83.1594,664.5 Z " fill="#000000"/><text fill="#000000" font-family="sans-serif" font-size="14" lengthAdjust="spacing" textLength="121" x="100.8" y="663.432">ColorCombination</text><line style="stroke:#181818;stroke-width:0.5;" x1="72.8" x2="223.8" y1="674" y2="674"/><text fill="#000000" font-family="sans-serif" font-size="14" lengthAdjust="spacing" textLength="27" x="77.8" y="692.9659">RED</text><text fill="#000000" font-family="sans-serif" font-size="14" lengthAdjust="spacing" textLength="34" x="77.8" y="712.0339">BLUE</text><text fill="#000000" font-family="sans-serif" font-size="14" lengthAdjust="spacing" textLength="54" x="77.8" y="731.1018">YELLOW</text><text fill="#000000" font-family="sans-serif" font-size="14" lengthAdjust="spacing" textLength="46" x="77.8" y="750.1697">GREEN</text><text fill="#000000" font-family="sans-serif" font-size="14" lengthAdjust="spacing" textLength="58" x="77.8" y="769.2376">ORANGE</text><text fill="#000000" font-family="sans-serif" font-size="14" lengthAdjust="spacing" textLength="50" x="77.8" y="788.3055">PURPLE</text><text fill="#000000" font-family="sans-serif" font-size="14" lengthAdjust="spacing" textLength="45" x="77.8" y="807.3734">EMPTY</text><line style="stroke:#181818;stroke-width:0.5;" x1="72.8" x2="223.8" y1="815.4754" y2="815.4754"/></g><!--class ColorCheckCombination--><g id="elem_ColorCheckCombination"><rect codeLine="24" fill="#F1F1F1" height="105.2038" id="ColorCheckCombination" rx="10" ry="10" style="stroke:#181818;stroke-width:0.5;" width="193" x="536.8" y="680.14"/><ellipse cx="551.8" cy="696.14" fill="#EB937F" rx="11" ry="11" style="stroke:#181818;stroke-width:1.0;"/><path d="M548.1594,702.64 L548.1594,690.4994 L555.8156,690.4994 L555.8156,692.6244 L550.5344,692.6244 L550.5344,695.2806 L555.55,695.2806 L555.55,697.4056 L550.5344,697.4056 L550.5344,700.515 L555.8156,700.515 L555.8156,702.64 L548.1594,702.64 Z " fill="#000000"/><text fill="#000000" font-family="sans-serif" font-size="14" lengthAdjust="spacing" textLength="161" x="565.8" y="701.572">ColorCheckCombination</text><line style="stroke:#181818;stroke-width:0.5;" x1="537.8" x2="728.8" y1="712.14" y2="712.14"/><text fill="#000000" font-family="sans-serif" font-size="14" lengthAdjust="spacing" textLength="43" x="542.8" y="731.1059">BLACK</text><text fill="#000000" font-family="sans-serif" font-size="14" lengthAdjust="spacing" textLength="44" x="542.8" y="750.1739">WHITE</text><text fill="#000000" font-family="sans-serif" font-size="14" lengthAdjust="spacing" textLength="45" x="542.8" y="769.2418">EMPTY</text><line style="stroke:#181818;stroke-width:0.5;" x1="537.8" x2="728.8" y1="777.3438" y2="777.3438"/></g><!--class Mastermind--><g id="elem_Mastermind"><rect fill="#F1F1F1" height="48" id="Mastermind" rx="10" ry="10" style="stroke:#181818;stroke-width:0.5;" width="114" x="189.3" y="7"/><ellipse cx="204.3" cy="23" fill="#ADD1B2" rx="11" ry="11" style="stroke:#181818;stroke-width:1.0;"/><path d="M203.7688,29.9219 Q202.0188,29.9219 200.8781,29.1875 Q199.7531,28.4375 199.1906,27.0938 Q198.6438,25.7344 198.6438,23.9375 Q198.6438,21.9063 199.3,20.4531 Q199.9563,19 201.2375,18.2188 Q202.5188,17.4375 204.3938,17.4375 Q205.2844,17.4375 205.9563,17.625 Q206.6281,17.7969 207.3156,18.1406 L206.5031,20.1563 Q205.8781,19.8438 205.3313,19.7188 Q204.8,19.5938 204.3156,19.5938 Q203.1438,19.5938 202.4406,20.125 Q201.7375,20.6563 201.4406,21.6094 Q201.1438,22.5625 201.1438,23.8281 Q201.1438,25.8438 201.8625,26.8125 Q202.5813,27.7656 204.175,27.7656 Q204.7688,27.7656 205.3938,27.6094 Q206.0188,27.4531 206.8469,27.0781 L206.8469,29.2969 Q206.1125,29.6094 205.3156,29.7656 Q204.5344,29.9219 203.7688,29.9219 Z " fill="#000000"/><text fill="#000000" font-family="sans-serif" font-size="14" lengthAdjust="spacing" textLength="82" x="218.3" y="28.432">Mastermind</text><line style="stroke:#181818;stroke-width:0.5;" x1="190.3" x2="302.3" y1="39" y2="39"/><line style="stroke:#181818;stroke-width:0.5;" x1="190.3" x2="302.3" y1="47" y2="47"/></g><!--class Board--><g id="elem_Board"><rect fill="#F1F1F1" height="48" id="Board" rx="10" ry="10" style="stroke:#181818;stroke-width:0.5;" width="72" x="108.3" y="388"/><ellipse cx="123.3" cy="404" fill="#ADD1B2" rx="11" ry="11" style="stroke:#181818;stroke-width:1.0;"/><path d="M122.7688,410.9219 Q121.0188,410.9219 119.8781,410.1875 Q118.7531,409.4375 118.1906,408.0938 Q117.6438,406.7344 117.6438,404.9375 Q117.6438,402.9063 118.3,401.4531 Q118.9563,400 120.2375,399.2188 Q121.5188,398.4375 123.3938,398.4375 Q124.2844,398.4375 124.9563,398.625 Q125.6281,398.7969 126.3156,399.1406 L125.5031,401.1563 Q124.8781,400.8438 124.3313,400.7188 Q123.8,400.5938 123.3156,400.5938 Q122.1438,400.5938 121.4406,401.125 Q120.7375,401.6563 120.4406,402.6094 Q120.1438,403.5625 120.1438,404.8281 Q120.1438,406.8438 120.8625,407.8125 Q121.5813,408.7656 123.175,408.7656 Q123.7688,408.7656 124.3938,408.6094 Q125.0188,408.4531 125.8469,408.0781 L125.8469,410.2969 Q125.1125,410.6094 124.3156,410.7656 Q123.5344,410.9219 122.7688,410.9219 Z " fill="#000000"/><text fill="#000000" font-family="sans-serif" font-size="14" lengthAdjust="spacing" textLength="40" x="137.3" y="409.432">Board</text><line style="stroke:#181818;stroke-width:0.5;" x1="109.3" x2="179.3" y1="420" y2="420"/><line style="stroke:#181818;stroke-width:0.5;" x1="109.3" x2="179.3" y1="428" y2="428"/></g><!--class Turn--><g id="elem_Turn"><rect fill="#F1F1F1" height="48" id="Turn" rx="10" ry="10" style="stroke:#181818;stroke-width:0.5;" width="64" x="214.3" y="134"/><ellipse cx="229.3" cy="150" fill="#ADD1B2" rx="11" ry="11" style="stroke:#181818;stroke-width:1.0;"/><path d="M228.7688,156.9219 Q227.0188,156.9219 225.8781,156.1875 Q224.7531,155.4375 224.1906,154.0938 Q223.6438,152.7344 223.6438,150.9375 Q223.6438,148.9063 224.3,147.4531 Q224.9563,146 226.2375,145.2188 Q227.5188,144.4375 229.3938,144.4375 Q230.2844,144.4375 230.9563,144.625 Q231.6281,144.7969 232.3156,145.1406 L231.5031,147.1563 Q230.8781,146.8438 230.3313,146.7188 Q229.8,146.5938 229.3156,146.5938 Q228.1438,146.5938 227.4406,147.125 Q226.7375,147.6563 226.4406,148.6094 Q226.1438,149.5625 226.1438,150.8281 Q226.1438,152.8438 226.8625,153.8125 Q227.5813,154.7656 229.175,154.7656 Q229.7688,154.7656 230.3938,154.6094 Q231.0188,154.4531 231.8469,154.0781 L231.8469,156.2969 Q231.1125,156.6094 230.3156,156.7656 Q229.5344,156.9219 228.7688,156.9219 Z " fill="#000000"/><text fill="#000000" font-family="sans-serif" font-size="14" lengthAdjust="spacing" textLength="32" x="243.3" y="155.432">Turn</text><line style="stroke:#181818;stroke-width:0.5;" x1="215.3" x2="277.3" y1="166" y2="166"/><line style="stroke:#181818;stroke-width:0.5;" x1="215.3" x2="277.3" y1="174" y2="174"/></g><!--class Player--><g id="elem_Player"><rect fill="#F1F1F1" height="48" id="Player" rx="10" ry="10" style="stroke:#181818;stroke-width:0.5;" width="73" x="311.8" y="261"/><ellipse cx="326.8" cy="277" fill="#ADD1B2" rx="11" ry="11" style="stroke:#181818;stroke-width:1.0;"/><path d="M326.2688,283.9219 Q324.5188,283.9219 323.3781,283.1875 Q322.2531,282.4375 321.6906,281.0938 Q321.1438,279.7344 321.1438,277.9375 Q321.1438,275.9063 321.8,274.4531 Q322.4563,273 323.7375,272.2188 Q325.0188,271.4375 326.8938,271.4375 Q327.7844,271.4375 328.4563,271.625 Q329.1281,271.7969 329.8156,272.1406 L329.0031,274.1563 Q328.3781,273.8438 327.8313,273.7188 Q327.3,273.5938 326.8156,273.5938 Q325.6438,273.5938 324.9406,274.125 Q324.2375,274.6563 323.9406,275.6094 Q323.6438,276.5625 323.6438,277.8281 Q323.6438,279.8438 324.3625,280.8125 Q325.0813,281.7656 326.675,281.7656 Q327.2688,281.7656 327.8938,281.6094 Q328.5188,281.4531 329.3469,281.0781 L329.3469,283.2969 Q328.6125,283.6094 327.8156,283.7656 Q327.0344,283.9219 326.2688,283.9219 Z " fill="#000000"/><text fill="#000000" font-family="sans-serif" font-size="14" lengthAdjust="spacing" textLength="41" x="340.8" y="282.432">Player</text><line style="stroke:#181818;stroke-width:0.5;" x1="312.8" x2="383.8" y1="293" y2="293"/><line style="stroke:#181818;stroke-width:0.5;" x1="312.8" x2="383.8" y1="301" y2="301"/></g><!--class ProposedCombination--><g id="elem_ProposedCombination"><rect fill="#F1F1F1" height="48" id="ProposedCombination" rx="10" ry="10" style="stroke:#181818;stroke-width:0.5;" width="181" x="57.8" y="515"/><ellipse cx="72.8" cy="531" fill="#ADD1B2" rx="11" ry="11" style="stroke:#181818;stroke-width:1.0;"/><path d="M72.2688,537.9219 Q70.5188,537.9219 69.3781,537.1875 Q68.2531,536.4375 67.6906,535.0938 Q67.1438,533.7344 67.1438,531.9375 Q67.1438,529.9063 67.8,528.4531 Q68.4563,527 69.7375,526.2188 Q71.0188,525.4375 72.8938,525.4375 Q73.7844,525.4375 74.4563,525.625 Q75.1281,525.7969 75.8156,526.1406 L75.0031,528.1563 Q74.3781,527.8438 73.8313,527.7188 Q73.3,527.5938 72.8156,527.5938 Q71.6438,527.5938 70.9406,528.125 Q70.2375,528.6563 69.9406,529.6094 Q69.6438,530.5625 69.6438,531.8281 Q69.6438,533.8438 70.3625,534.8125 Q71.0813,535.7656 72.675,535.7656 Q73.2688,535.7656 73.8938,535.6094 Q74.5188,535.4531 75.3469,535.0781 L75.3469,537.2969 Q74.6125,537.6094 73.8156,537.7656 Q73.0344,537.9219 72.2688,537.9219 Z " fill="#000000"/><text fill="#000000" font-family="sans-serif" font-size="14" lengthAdjust="spacing" textLength="149" x="86.8" y="536.432">ProposedCombination</text><line style="stroke:#181818;stroke-width:0.5;" x1="58.8" x2="237.8" y1="547" y2="547"/><line style="stroke:#181818;stroke-width:0.5;" x1="58.8" x2="237.8" y1="555" y2="555"/></g><!--class SecretCombination--><g id="elem_SecretCombination"><rect fill="#F1F1F1" height="48" id="SecretCombination" rx="10" ry="10" style="stroke:#181818;stroke-width:0.5;" width="160" x="273.3" y="515"/><ellipse cx="288.3" cy="531" fill="#ADD1B2" rx="11" ry="11" style="stroke:#181818;stroke-width:1.0;"/><path d="M287.7688,537.9219 Q286.0188,537.9219 284.8781,537.1875 Q283.7531,536.4375 283.1906,535.0938 Q282.6438,533.7344 282.6438,531.9375 Q282.6438,529.9063 283.3,528.4531 Q283.9563,527 285.2375,526.2188 Q286.5188,525.4375 288.3938,525.4375 Q289.2844,525.4375 289.9563,525.625 Q290.6281,525.7969 291.3156,526.1406 L290.5031,528.1563 Q289.8781,527.8438 289.3313,527.7188 Q288.8,527.5938 288.3156,527.5938 Q287.1438,527.5938 286.4406,528.125 Q285.7375,528.6563 285.4406,529.6094 Q285.1438,530.5625 285.1438,531.8281 Q285.1438,533.8438 285.8625,534.8125 Q286.5813,535.7656 288.175,535.7656 Q288.7688,535.7656 289.3938,535.6094 Q290.0188,535.4531 290.8469,535.0781 L290.8469,537.2969 Q290.1125,537.6094 289.3156,537.7656 Q288.5344,537.9219 287.7688,537.9219 Z " fill="#000000"/><text fill="#000000" font-family="sans-serif" font-size="14" lengthAdjust="spacing" textLength="128" x="302.3" y="536.432">SecretCombination</text><line style="stroke:#181818;stroke-width:0.5;" x1="274.3" x2="432.3" y1="547" y2="547"/><line style="stroke:#181818;stroke-width:0.5;" x1="274.3" x2="432.3" y1="555" y2="555"/></g><!--class CheckCombination--><g id="elem_CheckCombination"><rect fill="#F1F1F1" height="48" id="CheckCombination" rx="10" ry="10" style="stroke:#181818;stroke-width:0.5;" width="158" x="410.3" y="388"/><ellipse cx="425.3" cy="404" fill="#ADD1B2" rx="11" ry="11" style="stroke:#181818;stroke-width:1.0;"/><path d="M424.7688,410.9219 Q423.0188,410.9219 421.8781,410.1875 Q420.7531,409.4375 420.1906,408.0938 Q419.6438,406.7344 419.6438,404.9375 Q419.6438,402.9063 420.3,401.4531 Q420.9563,400 422.2375,399.2188 Q423.5188,398.4375 425.3938,398.4375 Q426.2844,398.4375 426.9563,398.625 Q427.6281,398.7969 428.3156,399.1406 L427.5031,401.1563 Q426.8781,400.8438 426.3313,400.7188 Q425.8,400.5938 425.3156,400.5938 Q424.1438,400.5938 423.4406,401.125 Q422.7375,401.6563 422.4406,402.6094 Q422.1438,403.5625 422.1438,404.8281 Q422.1438,406.8438 422.8625,407.8125 Q423.5813,408.7656 425.175,408.7656 Q425.7688,408.7656 426.3938,408.6094 Q427.0188,408.4531 427.8469,408.0781 L427.8469,410.2969 Q427.1125,410.6094 426.3156,410.7656 Q425.5344,410.9219 424.7688,410.9219 Z " fill="#000000"/><text fill="#000000" font-family="sans-serif" font-size="14" lengthAdjust="spacing" textLength="126" x="439.3" y="409.432">CheckCombination</text><line style="stroke:#181818;stroke-width:0.5;" x1="411.3" x2="567.3" y1="420" y2="420"/><line style="stroke:#181818;stroke-width:0.5;" x1="411.3" x2="567.3" y1="428" y2="428"/></g><!--class CorrectlyCombination--><g id="elem_CorrectlyCombination"><rect fill="#F1F1F1" height="48" id="CorrectlyCombination" rx="10" ry="10" style="stroke:#181818;stroke-width:0.5;" width="178" x="693.3" y="515"/><ellipse cx="708.3" cy="531" fill="#ADD1B2" rx="11" ry="11" style="stroke:#181818;stroke-width:1.0;"/><path d="M707.7688,537.9219 Q706.0188,537.9219 704.8781,537.1875 Q703.7531,536.4375 703.1906,535.0938 Q702.6438,533.7344 702.6438,531.9375 Q702.6438,529.9063 703.3,528.4531 Q703.9563,527 705.2375,526.2188 Q706.5188,525.4375 708.3938,525.4375 Q709.2844,525.4375 709.9563,525.625 Q710.6281,525.7969 711.3156,526.1406 L710.5031,528.1563 Q709.8781,527.8438 709.3313,527.7188 Q708.8,527.5938 708.3156,527.5938 Q707.1438,527.5938 706.4406,528.125 Q705.7375,528.6563 705.4406,529.6094 Q705.1438,530.5625 705.1438,531.8281 Q705.1438,533.8438 705.8625,534.8125 Q706.5813,535.7656 708.175,535.7656 Q708.7688,535.7656 709.3938,535.6094 Q710.0188,535.4531 710.8469,535.0781 L710.8469,537.2969 Q710.1125,537.6094 709.3156,537.7656 Q708.5344,537.9219 707.7688,537.9219 Z " fill="#000000"/><text fill="#000000" font-family="sans-serif" font-size="14" lengthAdjust="spacing" textLength="146" x="722.3" y="536.432">CorrectlyCombination</text><line style="stroke:#181818;stroke-width:0.5;" x1="694.3" x2="870.3" y1="547" y2="547"/><line style="stroke:#181818;stroke-width:0.5;" x1="694.3" x2="870.3" y1="555" y2="555"/></g><!--class IncorrectlyCombination--><g id="elem_IncorrectlyCombination"><rect fill="#F1F1F1" height="48" id="IncorrectlyCombination" rx="10" ry="10" style="stroke:#181818;stroke-width:0.5;" width="190" x="468.3" y="515"/><ellipse cx="483.3" cy="531" fill="#ADD1B2" rx="11" ry="11" style="stroke:#181818;stroke-width:1.0;"/><path d="M482.7688,537.9219 Q481.0188,537.9219 479.8781,537.1875 Q478.7531,536.4375 478.1906,535.0938 Q477.6438,533.7344 477.6438,531.9375 Q477.6438,529.9063 478.3,528.4531 Q478.9563,527 480.2375,526.2188 Q481.5188,525.4375 483.3938,525.4375 Q484.2844,525.4375 484.9563,525.625 Q485.6281,525.7969 486.3156,526.1406 L485.5031,528.1563 Q484.8781,527.8438 484.3313,527.7188 Q483.8,527.5938 483.3156,527.5938 Q482.1438,527.5938 481.4406,528.125 Q480.7375,528.6563 480.4406,529.6094 Q480.1438,530.5625 480.1438,531.8281 Q480.1438,533.8438 480.8625,534.8125 Q481.5813,535.7656 483.175,535.7656 Q483.7688,535.7656 484.3938,535.6094 Q485.0188,535.4531 485.8469,535.0781 L485.8469,537.2969 Q485.1125,537.6094 484.3156,537.7656 Q483.5344,537.9219 482.7688,537.9219 Z " fill="#000000"/><text fill="#000000" font-family="sans-serif" font-size="14" lengthAdjust="spacing" textLength="158" x="497.3" y="536.432">IncorrectlyCombination</text><line style="stroke:#181818;stroke-width:0.5;" x1="469.3" x2="657.3" y1="547" y2="547"/><line style="stroke:#181818;stroke-width:0.5;" x1="469.3" x2="657.3" y1="555" y2="555"/></g><!--link Mastermind to Board--><g id="link_Mastermind_Board"><path codeLine="31" d="M225.8,67.77 C215.61,86.9 203.89,111.15 196.3,134 C168.66,217.23 154.23,319.7 148.07,373.67 " fill="none" id="Mastermind-Board" style="stroke:#181818;stroke-width:1.0;"/><polygon fill="#181818" points="231.98,56.47,225.5947,59.8208,226.2319,67.0037,232.6172,63.6529,231.98,56.47" style="stroke:#181818;stroke-width:1.0;"/><polygon fill="#181818" points="146.68,386.35,151.6443,377.8438,147.2291,381.3802,143.6927,376.9651,146.68,386.35" style="stroke:#181818;stroke-width:1.0;"/><line style="stroke:#181818;stroke-width:1.0;" x1="147.2291" x2="148.095" y1="381.3802" y2="373.43"/><text fill="#000000" font-family="sans-serif" font-size="13" lengthAdjust="spacing" textLength="20" x="176.3" y="226.897">1..1</text></g><!--link Mastermind to Turn--><g id="link_Mastermind_Turn"><path codeLine="32" d="M246.3,69.51 C246.3,85.38 246.3,103.83 246.3,119.68 " fill="none" id="Mastermind-Turn" style="stroke:#181818;stroke-width:1.0;"/><polygon fill="#181818" points="246.3,56.74,242.3,62.74,246.3,68.74,250.3,62.74,246.3,56.74" style="stroke:#181818;stroke-width:1.0;"/><polygon fill="#181818" points="246.3,132.4,250.3,123.4,246.3,127.4,242.3,123.4,246.3,132.4" style="stroke:#181818;stroke-width:1.0;"/><line style="stroke:#181818;stroke-width:1.0;" x1="246.3" x2="246.3" y1="127.4" y2="119.4"/><text fill="#000000" font-family="sans-serif" font-size="13" lengthAdjust="spacing" textLength="20" x="247.3" y="99.897">1..1</text></g><!--link Turn to Player--><g id="link_Turn_Player"><path codeLine="33" d="M263.04,182.45 C273.44,196.73 287.28,215.21 300.3,231 C307.1,239.25 314.76,247.95 321.93,255.86 " fill="none" id="Turn-to-Player" style="stroke:#181818;stroke-width:1.0;"/><polygon fill="#181818" points="325.3,259.55,322.1769,250.2094,321.9253,255.8607,316.274,255.609,325.3,259.55" style="stroke:#181818;stroke-width:1.0;"/><text fill="#000000" font-family="sans-serif" font-size="13" lengthAdjust="spacing" textLength="20" x="301.3" y="226.897">1..1</text></g><!--link Mastermind to Player--><g id="link_Mastermind_Player"><path codeLine="34" d="M267.5,68.03 C270.57,73.65 273.6,79.44 276.3,85 C302.76,139.59 306.54,154.65 326.3,212 C330.15,223.17 334.02,235.43 337.43,246.62 " fill="none" id="Mastermind-Player" style="stroke:#181818;stroke-width:1.0;"/><polygon fill="#181818" points="261.14,56.72,260.5948,63.9105,267.0225,67.1793,267.5677,59.9888,261.14,56.72" style="stroke:#181818;stroke-width:1.0;"/><polygon fill="#181818" points="341.15,259.07,342.3983,249.3006,339.7148,254.2804,334.7349,251.5969,341.15,259.07" style="stroke:#181818;stroke-width:1.0;"/><line style="stroke:#181818;stroke-width:1.0;" x1="339.7148" x2="337.425" y1="254.2804" y2="246.615"/><text fill="#000000" font-family="sans-serif" font-size="13" lengthAdjust="spacing" textLength="20" x="316.3" y="163.397">2..2</text></g><!--link Player to ProposedCombination--><g id="link_Player_ProposedCombination"><path codeLine="35" d="M320.86,320.59 C282.67,368.71 213.9,455.35 175.72,503.45 " fill="none" id="Player-ProposedCombination" style="stroke:#181818;stroke-width:1.0;"/><polygon fill="none" points="328.9,310.45,322.0367,312.6624,321.4391,319.8487,328.3024,317.6363,328.9,310.45" style="stroke:#181818;stroke-width:1.0;"/><polygon fill="#181818" points="167.65,513.62,176.3786,509.058,170.7587,509.7039,170.1128,504.084,167.65,513.62" style="stroke:#181818;stroke-width:1.0;"/><line style="stroke:#181818;stroke-width:1.0;" x1="170.7587" x2="175.735" y1="509.7039" y2="503.44"/><text fill="#000000" font-family="sans-serif" font-size="13" lengthAdjust="spacing" textLength="23" x="266.3" y="417.397">1..N</text></g><!--link Player to SecretCombination--><g id="link_Player_SecretCombination"><path codeLine="36" d="M348.76,309.26 C349.68,355.3 351.71,457.96 352.72,508.6 " fill="none" id="Player-to-SecretCombination" style="stroke:#181818;stroke-width:1.0;"/><polygon fill="#181818" points="352.81,513.29,356.6292,504.2118,352.71,508.291,348.6308,504.3718,352.81,513.29" style="stroke:#181818;stroke-width:1.0;"/><text fill="#000000" font-family="sans-serif" font-size="13" lengthAdjust="spacing" textLength="20" x="351.3" y="417.397">1..1</text></g><!--link Player to CheckCombination--><g id="link_Player_CheckCombination"><path codeLine="37" d="M374.49,309.22 C398.33,330.36 433.55,361.58 458.68,383.86 " fill="none" id="Player-to-CheckCombination" style="stroke:#181818;stroke-width:1.0;"/><polygon fill="#181818" points="462.12,386.91,458.0338,377.9488,458.3767,383.5953,452.7302,383.9382,462.12,386.91" style="stroke:#181818;stroke-width:1.0;"/><text fill="#000000" font-family="sans-serif" font-size="13" lengthAdjust="spacing" textLength="20" x="427.3" y="353.897">1..1</text></g><!--link Board to ColorCombination--><g id="link_Board_ColorCombination"><path codeLine="38" d="M108.01,429.99 C76.97,446.74 34.4,475.56 15.3,515 C6,534.21 8.31,542.85 15.3,563 C26.4,595.02 46.37,625.56 67.52,651.65 " fill="none" id="Board-to-ColorCombination" style="stroke:#181818;stroke-width:1.0;stroke-dasharray:7.0,7.0;"/><polygon fill="#181818" points="70.52,655.29,67.911,645.793,67.3515,651.4221,61.7224,650.8626,70.52,655.29" style="stroke:#181818;stroke-width:1.0;"/><text fill="#000000" font-family="sans-serif" font-size="13" lengthAdjust="spacing" textLength="23" x="16.3" y="544.397">1..N</text></g><!--link Board to SecretCombination--><g id="link_Board_SecretCombination"><path codeLine="39" d="M193.15,442.22 C225.82,461.76 268.74,487.43 301.92,507.27 " fill="none" id="Board-SecretCombination" style="stroke:#181818;stroke-width:1.0;"/><polygon fill="#181818" points="182,435.55,185.0968,442.0623,192.2992,441.7084,189.2024,435.1961,182,435.55" style="stroke:#181818;stroke-width:1.0;"/><polygon fill="#181818" points="312.82,513.79,307.1484,505.7381,308.5287,511.224,303.0428,512.6042,312.82,513.79" style="stroke:#181818;stroke-width:1.0;"/><line style="stroke:#181818;stroke-width:1.0;" x1="308.5287" x2="301.665" y1="511.224" y2="507.125"/><text fill="#000000" font-family="sans-serif" font-size="13" lengthAdjust="spacing" textLength="20" x="263.3" y="480.897">1..1</text></g><!--link Board to ProposedCombination--><g id="link_Board_ProposedCombination"><path codeLine="40" d="M145.5,450.51 C146.01,466.38 146.6,484.83 147.11,500.68 " fill="none" id="Board-ProposedCombination" style="stroke:#181818;stroke-width:1.0;"/><polygon fill="#181818" points="145.09,437.74,141.2831,443.8644,145.4722,449.7339,149.2791,443.6095,145.09,437.74" style="stroke:#181818;stroke-width:1.0;"/><polygon fill="#181818" points="147.51,513.4,151.2213,504.2772,147.3507,508.4025,143.2254,504.532,147.51,513.4" style="stroke:#181818;stroke-width:1.0;"/><line style="stroke:#181818;stroke-width:1.0;" x1="147.3507" x2="147.1" y1="508.4025" y2="500.405"/><text fill="#000000" font-family="sans-serif" font-size="13" lengthAdjust="spacing" textLength="23" x="148.3" y="480.897">1..N</text></g><!--link SecretCombination to ColorCombination--><g id="link_SecretCombination_ColorCombination"><path codeLine="41" d="M328.57,563.13 C304.11,586.01 265.32,622.29 229.98,655.35 " fill="none" id="SecretCombination-to-ColorCombination" style="stroke:#181818;stroke-width:1.0;stroke-dasharray:7.0,7.0;"/><polygon fill="#181818" points="226.34,658.75,235.642,655.5139,229.9881,655.3308,230.1713,649.6769,226.34,658.75" style="stroke:#181818;stroke-width:1.0;"/><text fill="#000000" font-family="sans-serif" font-size="13" lengthAdjust="spacing" textLength="7" x="293.3" y="607.897">5</text></g><!--link ProposedCombination to ColorCombination--><g id="link_ProposedCombination_ColorCombination"><path codeLine="42" d="M148.3,563.13 C148.3,581.39 148.3,608.19 148.3,635.07 " fill="none" id="ProposedCombination-to-ColorCombination" style="stroke:#181818;stroke-width:1.0;stroke-dasharray:7.0,7.0;"/><polygon fill="#181818" points="148.3,640.02,152.3,631.02,148.3,635.02,144.3,631.02,148.3,640.02" style="stroke:#181818;stroke-width:1.0;"/><text fill="#000000" font-family="sans-serif" font-size="13" lengthAdjust="spacing" textLength="7" x="149.3" y="607.897">5</text></g><!--link CheckCombination to SecretCombination--><g id="link_CheckCombination_SecretCombination"><path codeLine="43" d="M479.14,436.5 C471.7,451.69 460.44,471.15 446.3,485 C435.96,495.13 423.31,504 410.71,511.44 " fill="none" id="CheckCombination-to-SecretCombination" style="stroke:#181818;stroke-width:1.0;stroke-dasharray:7.0,7.0;"/><polygon fill="#181818" points="406.63,513.79,416.428,512.7908,410.9695,511.3062,412.454,505.8477,406.63,513.79" style="stroke:#181818;stroke-width:1.0;"/><text fill="#000000" font-family="sans-serif" font-size="13" lengthAdjust="spacing" textLength="20" x="461.3" y="480.897">1..1</text></g><!--link CheckCombination to ProposedCombination--><g id="link_CheckCombination_ProposedCombination"><path codeLine="44" d="M425.56,436.37 C366.55,458 278.99,490.1 218.11,512.41 " fill="none" id="CheckCombination-to-ProposedCombination" style="stroke:#181818;stroke-width:1.0;stroke-dasharray:7.0,7.0;"/><polygon fill="#181818" points="213.73,514.02,223.5564,514.6843,218.4256,512.3021,220.8078,507.1713,213.73,514.02" style="stroke:#181818;stroke-width:1.0;"/><text fill="#000000" font-family="sans-serif" font-size="13" lengthAdjust="spacing" textLength="20" x="339.3" y="480.897">1..1</text></g><!--link CheckCombination to CorrectlyCombination--><g id="link_CheckCombination_CorrectlyCombination"><path codeLine="45" d="M557.12,441.94 C604.27,462.05 666.88,488.76 714.11,508.91 " fill="none" id="CheckCombination-CorrectlyCombination" style="stroke:#181818;stroke-width:1.0;"/><polygon fill="none" points="545.46,436.96,549.4096,442.9933,556.4979,441.6679,552.5483,435.6347,545.46,436.96" style="stroke:#181818;stroke-width:1.0;"/><polygon fill="#181818" points="725.91,513.95,719.2009,506.7398,721.3109,511.9884,716.0623,514.0984,725.91,513.95" style="stroke:#181818;stroke-width:1.0;"/><line style="stroke:#181818;stroke-width:1.0;" x1="721.3109" x2="713.955" y1="511.9884" y2="508.845"/><text fill="#000000" font-family="sans-serif" font-size="13" lengthAdjust="spacing" textLength="20" x="654.3" y="480.897">1..5</text></g><!--link CheckCombination to IncorrectlyCombination--><g id="link_CheckCombination_IncorrectlyCombination"><path codeLine="46" d="M510.43,448.69 C520.46,465.64 532.42,485.84 542.42,502.74 " fill="none" id="CheckCombination-IncorrectlyCombination" style="stroke:#181818;stroke-width:1.0;"/><polygon fill="none" points="503.82,437.53,503.4336,444.7307,509.9319,447.8569,510.3182,440.6562,503.82,437.53" style="stroke:#181818;stroke-width:1.0;"/><polygon fill="#181818" points="548.86,513.61,547.7129,503.8282,546.311,509.3085,540.8306,507.9066,548.86,513.61" style="stroke:#181818;stroke-width:1.0;"/><line style="stroke:#181818;stroke-width:1.0;" x1="546.311" x2="542.235" y1="509.3085" y2="502.42"/><text fill="#000000" font-family="sans-serif" font-size="13" lengthAdjust="spacing" textLength="20" x="531.3" y="480.897">1..5</text></g><!--link CorrectlyCombination to ColorCheckCombination--><g id="link_CorrectlyCombination_ColorCheckCombination"><path codeLine="47" d="M764.33,563.13 C742.92,590.68 706.41,637.67 677.35,675.05 " fill="none" id="CorrectlyCombination-to-ColorCheckCombination" style="stroke:#181818;stroke-width:1.0;stroke-dasharray:7.0,7.0;"/><polygon fill="#181818" points="674.42,678.83,683.0982,674.1729,677.4858,674.8802,676.7785,669.2677,674.42,678.83" style="stroke:#181818;stroke-width:1.0;"/><text fill="#000000" font-family="sans-serif" font-size="13" lengthAdjust="spacing" textLength="20" x="738.3" y="607.897">1..1</text></g><!--link IncorrectlyCombination to ColorCheckCombination--><g id="link_IncorrectlyCombination_ColorCheckCombination"><path codeLine="48" d="M571.74,563.13 C581.72,590.46 598.68,636.9 612.27,674.14 " fill="none" id="IncorrectlyCombination-to-ColorCheckCombination" style="stroke:#181818;stroke-width:1.0;stroke-dasharray:7.0,7.0;"/><polygon fill="#181818" points="613.9,678.61,614.5739,668.7842,612.1867,673.9127,607.0582,671.5255,613.9,678.61" style="stroke:#181818;stroke-width:1.0;"/><text fill="#000000" font-family="sans-serif" font-size="13" lengthAdjust="spacing" textLength="20" x="588.3" y="607.897">1..1</text></g><!--SRC=[bPHDJ-Cm48Rl-HNU6w0sWafSLYkaKW9Kj4aK0bLFo3X3Q-7Oo4bPLRlyTyRfLvowpUubjZn-7xyp7gTuv_A3QfeJhHOoOqfBqAHtxda_CdZZ4aWK1Yzfz883kV3zY-rwEedCEWwav_kzvlvnFvmQGTWCt0wVAzBbxWYcyWzLy98hcO2WPZoXGdG8EYixX56TSKa5BvUd1DV9MRTxLSL-rcDR72qAnJYrS4nmaCWgG7-2RZ1NGMAeg_W1xcocOMPpVy-L0AVHAaBKSQkB0hOedACn_6ODaWaGtx-gOcuEbtFGlAIIxNXipaLMMQiojpCsCVBhRxUxZjjO3-GY9mCbb1we_1MN3P7yyGX9WXlyNe-U0XocmMWKJN1obmH1Y6EKzCCx4ucVadXa9i4uJgVUbuMS0tjlSX7P7poOoUH-c1hbJkgv6cHCYn9qpYNcUAtGVAVMggUjadIXfQrmjSrgLopeqjpD__0tcjqpmHCS3RJP5sk5FCXgTUdKtvBRtqRz24n3wT8UJ6qZRTw6hQmtwBhApRPes7GLPgriSNb4sLwTkb77EVkcBssDyuHMrNxnMd8yBZwMvkeY7HsqZnaehO6LOkdYcF_lluA6ahMZh9ISsvsl_d1T3ftQZla6]--></g></svg>