<?xml version="1.0" encoding="UTF-8" standalone="no"?><svg xmlns="http://www.w3.org/2000/svg" xmlns:xlink="http://www.w3.org/1999/xlink" contentStyleType="text/css" height="249px" preserveAspectRatio="none" style="width:316px;height:249px;background:#FFFFFF;" version="1.1" viewBox="0 0 316 249" width="316px" zoomAndPan="magnify"><defs/><g><!--MD5=[2b611c2d60e481aa2035053367969193]
cluster Game--><g id="cluster_Game"><rect fill="none" height="236" rx="2.5" ry="2.5" style="stroke:#181818;stroke-width:1.0;" width="219.81" x="91" y="7"/><text fill="#000000" font-family="sans-serif" font-size="14" font-weight="bold" lengthAdjust="spacing" textLength="40" x="180.905" y="23.9659">Game</text></g><g id="elem_NewGame"><ellipse cx="200.9091" cy="61.9959" fill="#F1F1F1" rx="62.3691" ry="16.9759" style="stroke:#181818;stroke-width:0.5;"/><text fill="#000000" font-family="sans-serif" font-size="14" lengthAdjust="spacing" textLength="69" x="163.4091" y="66.7288">NewGame</text></g><g id="elem_ResumeGame"><ellipse cx="200.9136" cy="131.9967" fill="#F1F1F1" rx="76.3836" ry="17.6767" style="stroke:#181818;stroke-width:0.5;"/><text fill="#000000" font-family="sans-serif" font-size="14" lengthAdjust="spacing" textLength="93" x="151.4136" y="136.7297">ResumeGame</text></g><g id="elem_ProposeCombination"><ellipse cx="200.906" cy="206.0012" fill="#F1F1F1" rx="93.906" ry="21.1812" style="stroke:#181818;stroke-width:0.5;"/><text fill="#000000" font-family="sans-serif" font-size="14" lengthAdjust="spacing" textLength="140" x="127.906" y="210.7342">ProposeCombination</text></g><!--MD5=[de2effd8dc5bf946a609466312d0f75f]
entity Player--><g id="elem_Player"><ellipse cx="26.5" cy="100.97" fill="#F1F1F1" rx="8" ry="8" style="stroke:#181818;stroke-width:0.5;"/><path d="M26.5,108.97 L26.5,135.97 M13.5,116.97 L39.5,116.97 M26.5,135.97 L13.5,150.97 M26.5,135.97 L39.5,150.97 " fill="none" style="stroke:#181818;stroke-width:0.5;"/><text fill="#000000" font-family="sans-serif" font-size="14" lengthAdjust="spacing" textLength="41" x="6" y="167.4359">Player</text></g><!--MD5=[9afb8194572c6206a42dcac4f3ce97fb]
link Player to NewGame--><g id="link_Player_NewGame"><path d="M47.31,117.65 C57.58,110.7 70.56,102.66 83,97 C105.08,86.96 130.8,78.9 152.48,73.06 " fill="none" id="Player-NewGame" style="stroke:#181818;stroke-width:1.0;"/></g><!--MD5=[8db93e39993c8dffa1b45e98d844fb18]
link Player to ResumeGame--><g id="link_Player_ResumeGame"><path d="M47.28,132 C66.21,132 95.97,132 124.22,132 " fill="none" id="Player-ResumeGame" style="stroke:#181818;stroke-width:1.0;"/></g><!--MD5=[8dee72b7ea4194df32cfadea21530293]
link Player to ProposeCombination--><g id="link_Player_ProposeCombination"><path d="M47.39,146.18 C57.68,153.09 70.65,161.15 83,167 C101.27,175.65 121.99,183.23 140.85,189.35 " fill="none" id="Player-ProposeCombination" style="stroke:#181818;stroke-width:1.0;"/></g><!--MD5=[4f30341a7e571e02b48ae85ab8f9e4c8]
@startuml
left to right direction
actor Player

rectangle "Game" {
    Player - - (NewGame)
    Player - - (ResumeGame)
    Player - - (ProposeCombination)
}
@enduml

PlantUML version 1.2022.7(Mon Aug 22 12:01:30 ECT 2022)
(GPL source distribution)
Java Runtime: OpenJDK Runtime Environment
JVM: OpenJDK 64-Bit Server VM
Default Encoding: UTF-8
Language: en
Country: US
--></g></svg>