<?xml version="1.0" encoding="UTF-8" standalone="no"?><svg xmlns="http://www.w3.org/2000/svg" xmlns:xlink="http://www.w3.org/1999/xlink" contentStyleType="text/css" height="261px" preserveAspectRatio="none" style="width:315px;height:261px;background:#FFFFFF;" version="1.1" viewBox="0 0 315 261" width="315px" zoomAndPan="magnify"><defs/><g><!--MD5=[20596331c9b9f4fde36943293773a33d]
cluster Settings--><g id="cluster_Settings"><rect fill="none" height="248" rx="2.5" ry="2.5" style="stroke:#181818;stroke-width:1.0;" width="218.21" x="91" y="7"/><text fill="#000000" font-family="sans-serif" font-size="14" font-weight="bold" lengthAdjust="spacing" textLength="57" x="171.605" y="23.9659">Settings</text></g><g id="elem_SetSizeCombination"><ellipse cx="200.105" cy="66.003" fill="#F1F1F1" rx="91.515" ry="20.703" style="stroke:#181818;stroke-width:0.5;"/><text fill="#000000" font-family="sans-serif" font-size="14" lengthAdjust="spacing" textLength="134" x="130.105" y="70.736">SetSizeCombination</text></g><g id="elem_SetNumberAttempts"><ellipse cx="200.105" cy="143.001" fill="#F1F1F1" rx="93.105" ry="21.021" style="stroke:#181818;stroke-width:0.5;"/><text fill="#000000" font-family="sans-serif" font-size="14" lengthAdjust="spacing" textLength="138" x="128.105" y="147.734">SetNumberAttempts</text></g><g id="elem_SetDefaultSettings"><ellipse cx="200.1009" cy="219.0002" fill="#F1F1F1" rx="88.0009" ry="20.0002" style="stroke:#181818;stroke-width:0.5;"/><text fill="#000000" font-family="sans-serif" font-size="14" lengthAdjust="spacing" textLength="125" x="134.6009" y="223.7331">SetDefaultSettings</text></g><!--MD5=[de2effd8dc5bf946a609466312d0f75f]
entity Player--><g id="elem_Player"><ellipse cx="26.5" cy="111.97" fill="#F1F1F1" rx="8" ry="8" style="stroke:#181818;stroke-width:0.5;"/><path d="M26.5,119.97 L26.5,146.97 M13.5,127.97 L39.5,127.97 M26.5,146.97 L13.5,161.97 M26.5,146.97 L39.5,161.97 " fill="none" style="stroke:#181818;stroke-width:0.5;"/><text fill="#000000" font-family="sans-serif" font-size="14" lengthAdjust="spacing" textLength="41" x="6" y="178.4359">Player</text></g><!--MD5=[ae1c29d3c5d6b94d3c3ecb5d673b730b]
link Player to SetSizeCombination--><g id="link_Player_SetSizeCombination"><path d="M47.41,126.84 C57.6,119.15 70.47,110.28 83,104 C100.64,95.17 120.78,87.73 139.28,81.85 " fill="none" id="Player-SetSizeCombination" style="stroke:#181818;stroke-width:1.0;"/></g><!--MD5=[85c46be85be42d0e84265b13f3acd0c9]
link Player to SetNumberAttempts--><g id="link_Player_SetNumberAttempts"><path d="M47.19,143 C62.24,143 84.18,143 106.74,143 " fill="none" id="Player-SetNumberAttempts" style="stroke:#181818;stroke-width:1.0;"/></g><!--MD5=[87bbf600c94715563fa718b691b7e39a]
link Player to SetDefaultSettings--><g id="link_Player_SetDefaultSettings"><path d="M47.39,159.2 C57.57,166.91 70.45,175.77 83,182 C100.91,190.88 121.42,198.25 140.17,204.01 " fill="none" id="Player-SetDefaultSettings" style="stroke:#181818;stroke-width:1.0;"/></g><!--MD5=[c7b83ae8a5ab4da1571a30d2e96d3bce]
@startuml
left to right direction
actor Player

rectangle "Settings" {
    Player - - (SetSizeCombination)
    Player - - (SetNumberAttempts)
    Player - - (SetDefaultSettings)
}
@enduml

PlantUML version 1.2022.7(Mon Aug 22 12:01:30 ECT 2022)
(GPL source distribution)
Java Runtime: OpenJDK Runtime Environment
JVM: OpenJDK 64-Bit Server VM
Default Encoding: UTF-8
Language: en
Country: US
--></g></svg>