<?xml version="1.0" encoding="UTF-8" standalone="no"?><svg xmlns="http://www.w3.org/2000/svg" xmlns:xlink="http://www.w3.org/1999/xlink" contentStyleType="text/css" height="714px" preserveAspectRatio="none" style="width:530px;height:714px;background:#FFFFFF;" version="1.1" viewBox="0 0 530 714" width="530px" zoomAndPan="magnify"><defs/><g><g id="elem_isResume"><polygon fill="#F1F1F1" points="374,585,386,597,374,609,362,597,374,585" style="stroke:#181818;stroke-width:0.5;"/></g><g id="question"><rect fill="#F1F1F1" height="50" rx="12.5" ry="12.5" style="stroke:#181818;stroke-width:0.5;" width="50" x="214" y="474"/><line style="stroke:#181818;stroke-width:0.5;" x1="214" x2="264" y1="503.0679" y2="503.0679"/><text fill="#000000" font-family="sans-serif" font-size="14" lengthAdjust="spacing" textLength="4" x="237" y="493.9659"> </text></g><ellipse cx="230" cy="16" fill="#222222" rx="10" ry="10" style="stroke:none;stroke-width:1.0;"/><g id="IN_SETTINGS"><rect fill="#F1F1F1" height="50" rx="12.5" ry="12.5" style="stroke:#181818;stroke-width:0.5;" width="108" x="176" y="87"/><line style="stroke:#181818;stroke-width:0.5;" x1="176" x2="284" y1="116.0679" y2="116.0679"/><text fill="#000000" font-family="sans-serif" font-size="14" lengthAdjust="spacing" textLength="88" x="186" y="106.9659">IN_SETTINGS</text></g><g id="elem_GMN7"><path d="M318.5,98.15 L318.5,125.856 L523.5,125.856 L523.5,108.15 L513.5,98.15 L318.5,98.15 " fill="#FEFFDD" style="stroke:#181818;stroke-width:0.5;"/><path d="M513.5,98.15 L513.5,108.15 L523.5,108.15 L513.5,98.15 " fill="#FEFFDD" style="stroke:#181818;stroke-width:1.0;"/><text fill="#000000" font-family="sans-serif" font-size="13" lengthAdjust="spacing" textLength="184" x="324.5" y="117.047">Set the size of the combination</text></g><g id="IN_GAME"><rect fill="#F1F1F1" height="50" rx="12.5" ry="12.5" style="stroke:#181818;stroke-width:0.5;" width="82" x="7" y="198"/><line style="stroke:#181818;stroke-width:0.5;" x1="7" x2="89" y1="227.0679" y2="227.0679"/><text fill="#000000" font-family="sans-serif" font-size="14" lengthAdjust="spacing" textLength="62" x="17" y="217.9659">IN_GAME</text></g><g id="elem_GMN12"><path d="M142.5,209.15 L142.5,236.856 L359.5,236.856 L359.5,219.15 L349.5,209.15 L142.5,209.15 " fill="#FEFFDD" style="stroke:#181818;stroke-width:0.5;"/><path d="M349.5,209.15 L349.5,219.15 L359.5,219.15 L349.5,209.15 " fill="#FEFFDD" style="stroke:#181818;stroke-width:1.0;"/><text fill="#000000" font-family="sans-serif" font-size="13" lengthAdjust="spacing" textLength="196" x="148.5" y="228.047">Until the combination is guessed</text></g><g id="FINISHED_GAME"><rect fill="#F1F1F1" height="50" rx="12.5" ry="12.5" style="stroke:#181818;stroke-width:0.5;" width="130" x="42" y="309"/><line style="stroke:#181818;stroke-width:0.5;" x1="42" x2="172" y1="338.0679" y2="338.0679"/><text fill="#000000" font-family="sans-serif" font-size="14" lengthAdjust="spacing" textLength="110" x="52" y="328.9659">FINISHED_GAME</text></g><ellipse cx="374" cy="698" fill="none" rx="10" ry="10" style="stroke:#222222;stroke-width:1.0;"/><ellipse cx="374.5" cy="698.5" fill="#222222" rx="6" ry="6" style="stroke:none;stroke-width:1.0;"/><!--MD5=[62f3282b180693c2f7c05514f0142400]
link *start to IN_SETTINGS--><g id="link_*start_IN_SETTINGS"><path d="M230,26.36 C230,38.87 230,61.67 230,80.45 " fill="none" id="*start-to-IN_SETTINGS" style="stroke:#181818;stroke-width:1.0;"/><polygon fill="#181818" points="230,85.13,234,76.13,230,80.13,226,76.13,230,85.13" style="stroke:#181818;stroke-width:1.0;"/></g><!--MD5=[7e9a682e6b54dd3a13fa8fe7488784b0]
link IN_SETTINGS to GMN7--><g id="link_IN_SETTINGS_GMN7"><path d="M284.27,112 C289.93,112 293.67,112 293.67,112 C293.67,112 305,112 318.1,112 " fill="none" id="IN_SETTINGS-GMN7" style="stroke:#181818;stroke-width:1.0;stroke-dasharray:7.0,7.0;"/></g><!--MD5=[5bfe482dba2b541f2522bc9a0fd35fee]
link IN_GAME to IN_GAME--><g id="link_IN_GAME_IN_GAME"><path d="M89.43,212.76 C107.97,211.78 124,215.2 124,223 C124,229.89 111.51,233.36 95.82,233.41 " fill="none" id="IN_GAME-to-IN_GAME" style="stroke:#181818;stroke-width:1.0;"/><polygon fill="#181818" points="90.95,233.28,99.8442,237.51,95.9483,233.4085,100.0498,229.5127,90.95,233.28" style="stroke:#181818;stroke-width:1.0;"/></g><!--MD5=[30b184a0ba1288fa47e917a3e239498b]
link IN_GAME to GMN12--><g id="link_IN_GAME_GMN12"><path d="M89.31,223 C103.4,223 115.67,223 115.67,223 C115.67,223 127.93,223 142.02,223 " fill="none" id="IN_GAME-GMN12" style="stroke:#181818;stroke-width:1.0;stroke-dasharray:7.0,7.0;"/></g><!--MD5=[a503d0fc3200394b011b45eacb3cc9fe]
link IN_SETTINGS to IN_GAME--><g id="link_IN_SETTINGS_IN_GAME"><path d="M189.16,137.46 C160.94,154.36 123.36,176.86 94.08,194.41 " fill="none" id="IN_SETTINGS-to-IN_GAME" style="stroke:#181818;stroke-width:1.0;"/><polygon fill="#181818" points="90.01,196.84,99.7854,195.6395,94.2975,194.2675,95.6695,188.7796,90.01,196.84" style="stroke:#181818;stroke-width:1.0;"/></g><!--MD5=[84e9ba35ded649558d954d272c3aeb99]
link IN_GAME to FINISHED_GAME--><g id="link_IN_GAME_FINISHED_GAME"><path d="M61.24,248.46 C69.97,264.59 81.46,285.82 90.75,302.97 " fill="none" id="IN_GAME-to-FINISHED_GAME" style="stroke:#181818;stroke-width:1.0;"/><polygon fill="#181818" points="93.08,307.29,92.3312,297.4696,90.7078,302.8886,85.2889,301.2652,93.08,307.29" style="stroke:#181818;stroke-width:1.0;"/></g><!--MD5=[e092043b8fbbec742a5089c3130a82d6]
link FINISHED_GAME to question--><g id="link_FINISHED_GAME_question"><path d="M114.18,359.46 C123.62,391.6 139,444 139,444 C139,444 178.44,465.3 207.79,481.15 " fill="none" id="FINISHED_GAME-to-question" style="stroke:#181818;stroke-width:1.0;"/><polygon fill="#181818" points="212.18,483.51,206.1748,475.7038,207.7845,481.1267,202.3616,482.7365,212.18,483.51" style="stroke:#181818;stroke-width:1.0;"/><path d="M144,394 L144,439 L382,439 L382,404 L372,394 L144,394 " fill="#FEFFDD" style="stroke:#181818;stroke-width:0.5;"/><path d="M372,394 L372,404 L382,404 L372,394 " fill="#FEFFDD" style="stroke:#181818;stroke-width:0.5;"/><text fill="#000000" font-family="sans-serif" font-size="13" lengthAdjust="spacing" textLength="217" x="150" y="412.897">Do you want to play a new game? or</text><text fill="#000000" font-family="sans-serif" font-size="13" lengthAdjust="spacing" textLength="183" x="150" y="430.603">Do you want to resume game?</text></g><!--MD5=[5e60a171505d01e30c46c7cfc5dcccbd]
link question to isResume--><g id="link_question_isResume"><path d="M264.39,518.06 C293.56,538.8 340.19,571.96 362.01,587.47 " fill="none" id="question-to-isResume" style="stroke:#181818;stroke-width:1.0;"/><polygon fill="#181818" points="366,590.31,360.9901,581.8306,361.9275,587.4092,356.3488,588.3466,366,590.31" style="stroke:#181818;stroke-width:1.0;"/></g><!--MD5=[094b4486cfd37965a01dfc375dd1c2cd]
link isResume to IN_SETTINGS--><g id="link_isResume_IN_SETTINGS"><path d="M377.33,587.82 C386.76,564.6 413,500 413,500 C413,222 413,222 413,222 C413,222 377,198 377,198 C377,198 320.5,165.33 277.55,140.5 " fill="none" id="isResume-to-IN_SETTINGS" style="stroke:#181818;stroke-width:1.0;"/><polygon fill="#181818" points="273.43,138.12,279.223,146.085,277.7597,140.6207,283.2241,139.1574,273.43,138.12" style="stroke:#181818;stroke-width:1.0;"/><text fill="#000000" font-family="sans-serif" font-size="13" lengthAdjust="spacing" textLength="20" x="414" y="339.397">Yes</text></g><!--MD5=[1519bdaa7769b187d9fd4f3afae68c86]
link isResume to *end--><g id="link_isResume_*end"><path d="M374,609.36 C374,626.98 374,660.99 374,681.06 " fill="none" id="isResume-to-*end" style="stroke:#181818;stroke-width:1.0;"/><polygon fill="#181818" points="374,686.02,378,677.02,374,681.02,370,677.02,374,686.02" style="stroke:#181818;stroke-width:1.0;"/><text fill="#000000" font-family="sans-serif" font-size="13" lengthAdjust="spacing" textLength="18" x="375" y="653.897">No</text></g><!--MD5=[da741009e08da36ddba1476611ff7dfc]
@startuml
skinparam linetype polyline
state isResume <<choice>>
state question as " "

[*] - -> IN_SETTINGS
note right of IN_SETTINGS : Set the size of the combination

IN_GAME - -> IN_GAME
note right of IN_GAME : Until the combination is guessed

IN_SETTINGS - -> IN_GAME
IN_GAME - -> FINISHED_GAME

FINISHED_GAME - -> question
note on link : Do you want to play a new game? or\nDo you want to resume game?

question - -> isResume
isResume - -> IN_SETTINGS : Yes
isResume - -> [*] : No
@enduml

PlantUML version 1.2022.7(Mon Aug 22 12:01:30 ECT 2022)
(GPL source distribution)
Java Runtime: OpenJDK Runtime Environment
JVM: OpenJDK 64-Bit Server VM
Default Encoding: UTF-8
Language: en
Country: US
--></g></svg>