<?xml version="1.0" encoding="UTF-8" standalone="no"?><svg xmlns="http://www.w3.org/2000/svg" xmlns:xlink="http://www.w3.org/1999/xlink" contentStyleType="text/css" height="696px" preserveAspectRatio="none" style="width:530px;height:696px;background:#FFFFFF;" version="1.1" viewBox="0 0 530 696" width="530px" zoomAndPan="magnify"><defs/><g><g id="elem_isResume"><polygon fill="#F1F1F1" points="374,567,386,579,374,591,362,579,374,567" style="stroke:#181818;stroke-width:0.5;"/></g><g id="question"><rect fill="#F1F1F1" height="50" rx="12.5" ry="12.5" style="stroke:#181818;stroke-width:0.5;" width="50" x="222" y="456"/><line style="stroke:#181818;stroke-width:0.5;" x1="222" x2="272" y1="485.0679" y2="485.0679"/><text fill="#000000" font-family="sans-serif" font-size="14" lengthAdjust="spacing" textLength="4" x="245" y="475.9659"> </text></g><ellipse cx="230" cy="16" fill="#222222" rx="10" ry="10" style="stroke:none;stroke-width:1.0;"/><g id="IN_SETTINGS"><rect fill="#F1F1F1" height="50" rx="12.5" ry="12.5" style="stroke:#181818;stroke-width:0.5;" width="108" x="176" y="87"/><line style="stroke:#181818;stroke-width:0.5;" x1="176" x2="284" y1="116.0679" y2="116.0679"/><text fill="#000000" font-family="sans-serif" font-size="14" lengthAdjust="spacing" textLength="88" x="186" y="106.9659">IN_SETTINGS</text></g><g id="elem_GMN7"><path d="M318.5,98.15 L318.5,108 L284.46,112 L318.5,116 L318.5,125.856 A0,0 0 0 0 318.5,125.856 L523.5,125.856 A0,0 0 0 0 523.5,125.856 L523.5,108.15 L513.5,98.15 L318.5,98.15 A0,0 0 0 0 318.5,98.15 " fill="#FEFFDD" style="stroke:#181818;stroke-width:0.5;"/><path d="M513.5,98.15 L513.5,108.15 L523.5,108.15 L513.5,98.15 " fill="#FEFFDD" style="stroke:#181818;stroke-width:0.5;"/><text fill="#000000" font-family="sans-serif" font-size="13" lengthAdjust="spacing" textLength="184" x="324.5" y="117.047">Set the size of the combination</text></g><g id="IN_GAME"><rect fill="#F1F1F1" height="50" rx="12.5" ry="12.5" style="stroke:#181818;stroke-width:0.5;" width="82" x="7" y="198"/><line style="stroke:#181818;stroke-width:0.5;" x1="7" x2="89" y1="227.0679" y2="227.0679"/><text fill="#000000" font-family="sans-serif" font-size="14" lengthAdjust="spacing" textLength="62" x="17" y="217.9659">IN_GAME</text></g><g id="elem_GMN12"><path d="M142.5,209.15 L142.5,219 L89.23,223 L142.5,227 L142.5,236.856 A0,0 0 0 0 142.5,236.856 L359.5,236.856 A0,0 0 0 0 359.5,236.856 L359.5,219.15 L349.5,209.15 L142.5,209.15 A0,0 0 0 0 142.5,209.15 " fill="#FEFFDD" style="stroke:#181818;stroke-width:0.5;"/><path d="M349.5,209.15 L349.5,219.15 L359.5,219.15 L349.5,209.15 " fill="#FEFFDD" style="stroke:#181818;stroke-width:0.5;"/><text fill="#000000" font-family="sans-serif" font-size="13" lengthAdjust="spacing" textLength="196" x="148.5" y="228.047">Until the combination is guessed</text></g><g id="FINISHED_GAME"><rect fill="#F1F1F1" height="50" rx="12.5" ry="12.5" style="stroke:#181818;stroke-width:0.5;" width="130" x="52" y="309"/><line style="stroke:#181818;stroke-width:0.5;" x1="52" x2="182" y1="338.0679" y2="338.0679"/><text fill="#000000" font-family="sans-serif" font-size="14" lengthAdjust="spacing" textLength="110" x="62" y="328.9659">FINISHED_GAME</text></g><ellipse cx="374" cy="680" fill="none" rx="10" ry="10" style="stroke:#222222;stroke-width:1.0;"/><ellipse cx="374.5" cy="680.5" fill="#222222" rx="6" ry="6" style="stroke:none;stroke-width:1.0;"/><!--MD5=[62f3282b180693c2f7c05514f0142400]
link *start to IN_SETTINGS--><g id="link_*start_IN_SETTINGS"><path d="M230,26.36 C230,38.87 230,61.67 230,80.45 " fill="none" id="*start-to-IN_SETTINGS" style="stroke:#181818;stroke-width:1.0;"/><polygon fill="#181818" points="230,85.13,234,76.13,230,80.13,226,76.13,230,85.13" style="stroke:#181818;stroke-width:1.0;"/></g><!--MD5=[5bfe482dba2b541f2522bc9a0fd35fee]
link IN_GAME to IN_GAME--><g id="link_IN_GAME_IN_GAME"><path d="M89.43,212.76 C107.97,211.78 124,215.2 124,223 C124,229.89 111.51,233.36 95.82,233.41 " fill="none" id="IN_GAME-to-IN_GAME" style="stroke:#181818;stroke-width:1.0;"/><polygon fill="#181818" points="90.95,233.28,99.8442,237.51,95.9483,233.4085,100.0498,229.5127,90.95,233.28" style="stroke:#181818;stroke-width:1.0;"/></g><!--MD5=[a503d0fc3200394b011b45eacb3cc9fe]
link IN_SETTINGS to IN_GAME--><g id="link_IN_SETTINGS_IN_GAME"><path d="M189.16,137.46 C160.94,154.36 123.36,176.86 94.08,194.41 " fill="none" id="IN_SETTINGS-to-IN_GAME" style="stroke:#181818;stroke-width:1.0;"/><polygon fill="#181818" points="90.01,196.84,99.7854,195.6395,94.2975,194.2675,95.6695,188.7796,90.01,196.84" style="stroke:#181818;stroke-width:1.0;"/></g><!--MD5=[84e9ba35ded649558d954d272c3aeb99]
link IN_GAME to FINISHED_GAME--><g id="link_IN_GAME_FINISHED_GAME"><path d="M63.48,248.46 C73.78,264.73 87.37,286.19 98.27,303.42 " fill="none" id="IN_GAME-to-FINISHED_GAME" style="stroke:#181818;stroke-width:1.0;"/><polygon fill="#181818" points="100.76,307.34,99.3348,297.5948,98.0895,303.1129,92.5714,301.8676,100.76,307.34" style="stroke:#181818;stroke-width:1.0;"/></g><!--MD5=[e092043b8fbbec742a5089c3130a82d6]
link FINISHED_GAME to question--><g id="link_FINISHED_GAME_question"><path d="M122.57,359.33 C128.1,379.11 138.22,406.78 155,426 C171.45,444.84 196.14,458.83 215.8,467.84 " fill="none" id="FINISHED_GAME-to-question" style="stroke:#181818;stroke-width:1.0;"/><polygon fill="#181818" points="220.35,469.86,213.746,462.5533,215.7798,467.832,210.5011,469.8657,220.35,469.86" style="stroke:#181818;stroke-width:1.0;"/><path d="M160,394 L160,421 L382,421 L382,404 L372,394 L160,394 " fill="#FEFFDD" style="stroke:#181818;stroke-width:0.5;"/><path d="M372,394 L372,404 L382,404 L372,394 " fill="#FEFFDD" style="stroke:#181818;stroke-width:0.5;"/><text fill="#000000" font-family="sans-serif" font-size="13" lengthAdjust="spacing" textLength="201" x="166" y="412.897">Do you want to play a new game?</text></g><!--MD5=[5e60a171505d01e30c46c7cfc5dcccbd]
link question to isResume--><g id="link_question_isResume"><path d="M272.4,501.2 C299.79,521.9 342.19,553.96 362.45,569.27 " fill="none" id="question-to-isResume" style="stroke:#181818;stroke-width:1.0;"/><polygon fill="#181818" points="366.34,572.21,361.5745,563.5909,362.352,569.194,356.7489,569.9716,366.34,572.21" style="stroke:#181818;stroke-width:1.0;"/></g><!--MD5=[094b4486cfd37965a01dfc375dd1c2cd]
link isResume to IN_SETTINGS--><g id="link_isResume_IN_SETTINGS"><path d="M378.78,571.39 C389.2,556.33 413,517.98 413,482 C413,222 413,222 413,222 C413,192.83 343.51,158.22 290.17,135.95 " fill="none" id="isResume-to-IN_SETTINGS" style="stroke:#181818;stroke-width:1.0;"/><polygon fill="#181818" points="285.81,134.15,292.598,141.286,290.4304,136.0609,295.6555,133.8933,285.81,134.15" style="stroke:#181818;stroke-width:1.0;"/><text fill="#000000" font-family="sans-serif" font-size="13" lengthAdjust="spacing" textLength="20" x="414" y="339.397">Yes</text></g><!--MD5=[1519bdaa7769b187d9fd4f3afae68c86]
link isResume to *end--><g id="link_isResume_*end"><path d="M374,591.36 C374,608.98 374,642.99 374,663.06 " fill="none" id="isResume-to-*end" style="stroke:#181818;stroke-width:1.0;"/><polygon fill="#181818" points="374,668.02,378,659.02,374,663.02,370,659.02,374,668.02" style="stroke:#181818;stroke-width:1.0;"/><text fill="#000000" font-family="sans-serif" font-size="13" lengthAdjust="spacing" textLength="18" x="375" y="635.897">No</text></g><!--MD5=[f77a13b58e3a2ffd931f92b8bb6fb87d]
@startuml
state isResume <<choice>>
state question as " "

[*] - -> IN_SETTINGS
note right of IN_SETTINGS : Set the size of the combination

IN_GAME - -> IN_GAME
note right of IN_GAME : Until the combination is guessed

IN_SETTINGS - -> IN_GAME
IN_GAME - -> FINISHED_GAME

FINISHED_GAME - -> question
note on link : Do you want to play a new game?

question - -> isResume
isResume - -> IN_SETTINGS : Yes
isResume - -> [*] : No
@enduml

PlantUML version 1.2022.7(Mon Aug 22 12:01:30 ECT 2022)
(GPL source distribution)
Java Runtime: OpenJDK Runtime Environment
JVM: OpenJDK 64-Bit Server VM
Default Encoding: UTF-8
Language: en
Country: US
--></g></svg>