<?xml version="1.0" encoding="us-ascii" standalone="no"?><svg xmlns="http://www.w3.org/2000/svg" xmlns:xlink="http://www.w3.org/1999/xlink" contentStyleType="text/css" height="843px" preserveAspectRatio="none" style="width:1127px;height:843px;background:#FFFFFF;" version="1.1" viewBox="0 0 1127 843" width="1127px" zoomAndPan="magnify"><defs/><g><g id="elem_isResume"><polygon fill="#F1F1F1" points="554,714,566,726,554,738,542,726,554,714" style="stroke:#181818;stroke-width:0.5;"/></g><g id="question"><rect fill="#F1F1F1" height="50" rx="12.5" ry="12.5" style="stroke:#181818;stroke-width:0.5;" width="50" x="529" y="603"/><line style="stroke:#181818;stroke-width:0.5;" x1="529" x2="579" y1="632.0679" y2="632.0679"/><text fill="#000000" font-family="sans-serif" font-size="14" lengthAdjust="spacing" textLength="4" x="552" y="622.9659">&#160;</text></g><ellipse cx="511" cy="16" fill="#181818" rx="10" ry="10" style="stroke:none;stroke-width:1.0;"/><g id="OPENED_MENU"><rect fill="#F1F1F1" height="50" rx="12.5" ry="12.5" style="stroke:#181818;stroke-width:0.5;" width="124" x="449" y="87"/><line style="stroke:#181818;stroke-width:0.5;" x1="449" x2="573" y1="116.0679" y2="116.0679"/><text fill="#000000" font-family="sans-serif" font-size="14" lengthAdjust="spacing" textLength="104" x="459" y="106.9659">OPENED_MENU</text></g><g id="OPENED_SETTINGS"><rect fill="#F1F1F1" height="50" rx="12.5" ry="12.5" style="stroke:#181818;stroke-width:0.5;" width="148" x="7" y="198"/><line style="stroke:#181818;stroke-width:0.5;" x1="7" x2="155" y1="227.0679" y2="227.0679"/><text fill="#000000" font-family="sans-serif" font-size="14" lengthAdjust="spacing" textLength="128" x="17" y="217.9659">OPENED_SETTINGS</text></g><g id="elem_GMN9"><path d="M190.5,200.29 L190.5,245.702 L423.5,245.702 L423.5,210.29 L413.5,200.29 L190.5,200.29 " fill="#FEFFDD" style="stroke:#181818;stroke-width:0.5;"/><path d="M413.5,200.29 L413.5,210.29 L423.5,210.29 L413.5,200.29 " fill="#FEFFDD" style="stroke:#181818;stroke-width:1.0;"/><ellipse cx="202" cy="215.496" fill="#000000" rx="2.5" ry="2.5" style="stroke:#000000;stroke-width:0.0;"/><text fill="#000000" font-family="sans-serif" font-size="13" lengthAdjust="spacing" textLength="200" x="208.5" y="219.187">Set the size of the combination or</text><ellipse cx="202" cy="233.202" fill="#000000" rx="2.5" ry="2.5" style="stroke:#000000;stroke-width:0.0;"/><text fill="#000000" font-family="sans-serif" font-size="13" lengthAdjust="spacing" textLength="147" x="208.5" y="236.893">Size of number attempts</text></g><g id="OPENED_GAME"><rect fill="#F1F1F1" height="50" rx="12.5" ry="12.5" style="stroke:#181818;stroke-width:0.5;" width="122" x="529" y="309"/><line style="stroke:#181818;stroke-width:0.5;" x1="529" x2="651" y1="338.0679" y2="338.0679"/><text fill="#000000" font-family="sans-serif" font-size="14" lengthAdjust="spacing" textLength="102" x="539" y="328.9659">OPENED_GAME</text></g><g id="OPENED_RULES"><rect fill="#F1F1F1" height="50" rx="12.5" ry="12.5" style="stroke:#181818;stroke-width:0.5;" width="124" x="821" y="198"/><line style="stroke:#181818;stroke-width:0.5;" x1="821" x2="945" y1="227.0679" y2="227.0679"/><text fill="#000000" font-family="sans-serif" font-size="14" lengthAdjust="spacing" textLength="104" x="831" y="217.9659">OPENED_RULES</text></g><g id="elem_GMN16"><path d="M980,209.15 L980,219 L945.49,223 L980,227 L980,236.856 A0,0 0 0 0 980,236.856 L1120,236.856 A0,0 0 0 0 1120,236.856 L1120,219.15 L1110,209.15 L980,209.15 A0,0 0 0 0 980,209.15 " fill="#FEFFDD" style="stroke:#181818;stroke-width:0.5;"/><path d="M1110,209.15 L1110,219.15 L1120,219.15 L1110,209.15 " fill="#FEFFDD" style="stroke:#181818;stroke-width:0.5;"/><ellipse cx="991.5" cy="224.356" fill="#000000" rx="2.5" ry="2.5" style="stroke:#000000;stroke-width:0.0;"/><text fill="#000000" font-family="sans-serif" font-size="13" lengthAdjust="spacing" textLength="107" x="998" y="228.047">Rules of the game</text></g><g id="elem_GMN20"><path d="M703.5,320.15 L703.5,347.856 L920.5,347.856 L920.5,330.15 L910.5,320.15 L703.5,320.15 " fill="#FEFFDD" style="stroke:#181818;stroke-width:0.5;"/><path d="M910.5,320.15 L910.5,330.15 L920.5,330.15 L910.5,320.15 " fill="#FEFFDD" style="stroke:#181818;stroke-width:1.0;"/><text fill="#000000" font-family="sans-serif" font-size="13" lengthAdjust="spacing" textLength="196" x="709.5" y="339.047">Until the combination is guessed</text></g><g id="FINISHED_GAME"><rect fill="#F1F1F1" height="50" rx="12.5" ry="12.5" style="stroke:#181818;stroke-width:0.5;" width="130" x="529" y="438"/><line style="stroke:#181818;stroke-width:0.5;" x1="529" x2="659" y1="467.0679" y2="467.0679"/><text fill="#000000" font-family="sans-serif" font-size="14" lengthAdjust="spacing" textLength="110" x="539" y="457.9659">FINISHED_GAME</text></g><ellipse cx="747" cy="827" fill="none" rx="10" ry="10" style="stroke:#181818;stroke-width:1.0;"/><ellipse cx="747.5" cy="827.5" fill="#181818" rx="6" ry="6" style="stroke:none;stroke-width:1.0;"/><!--link *start* to OPENED_MENU--><g id="link_*start*_OPENED_MENU"><path d="M511,26.36 C511,38.87 511,61.67 511,80.45 " fill="none" id="*start*-to-OPENED_MENU" style="stroke:#181818;stroke-width:1.0;"/><polygon fill="#181818" points="511,85.13,515,76.13,511,80.13,507,76.13,511,85.13" style="stroke:#181818;stroke-width:1.0;"/></g><!--link OPENED_MENU to OPENED_SETTINGS--><g id="link_OPENED_MENU_OPENED_SETTINGS"><path d="M448.61,128.69 C350.95,153.25 173,198 173,198 C173,198 168.38,199.21 161.21,201.08 " fill="none" id="OPENED_MENU-to-OPENED_SETTINGS" style="stroke:#181818;stroke-width:1.0;"/><polygon fill="#181818" points="156.73,202.25,166.4507,203.8335,161.5661,200.9803,164.4193,196.0957,156.73,202.25" style="stroke:#181818;stroke-width:1.0;"/></g><!--link OPENED_SETTINGS to GMN9--><g id="link_OPENED_SETTINGS_GMN9"><path d="M155.49,223 C156.04,223 156.33,223 156.33,223 C156.33,223 172.61,223 190.03,223 " fill="none" id="OPENED_SETTINGS-GMN9" style="stroke:#181818;stroke-width:1.0;stroke-dasharray:7.0,7.0;"/></g><!--link OPENED_MENU to OPENED_GAME--><g id="link_OPENED_MENU_OPENED_GAME"><path d="M519.76,137.38 C534.26,177.77 563.23,258.46 579.06,302.54 " fill="none" id="OPENED_MENU-to-OPENED_GAME" style="stroke:#181818;stroke-width:1.0;"/><polygon fill="#181818" points="580.69,307.08,581.3903,297.2561,578.9893,302.3781,573.8673,299.9772,580.69,307.08" style="stroke:#181818;stroke-width:1.0;"/></g><!--link OPENED_MENU to OPENED_RULES--><g id="link_OPENED_MENU_OPENED_RULES"><path d="M573.26,131.24 C639.92,150.78 745.38,181.68 814.39,201.9 " fill="none" id="OPENED_MENU-to-OPENED_RULES" style="stroke:#181818;stroke-width:1.0;"/><polygon fill="#181818" points="819.08,203.27,811.5651,196.904,814.2811,201.8661,809.3189,204.5822,819.08,203.27" style="stroke:#181818;stroke-width:1.0;"/></g><!--link OPENED_GAME to OPENED_GAME--><g id="link_OPENED_GAME_OPENED_GAME"><path d="M651.4,323.6 C670.74,323.76 686,327.23 686,334 C686,340.03 673.9,343.44 657.58,344.23 " fill="none" id="OPENED_GAME-to-OPENED_GAME" style="stroke:#181818;stroke-width:1.0;"/><polygon fill="#181818" points="652.91,344.36,662.0206,348.1013,657.908,344.2172,661.7921,340.1046,652.91,344.36" style="stroke:#181818;stroke-width:1.0;"/></g><!--link OPENED_GAME to GMN20--><g id="link_OPENED_GAME_GMN20"><path d="M651.45,334 C658.93,334 664,334 664,334 C664,334 683.97,334 703.17,334 " fill="none" id="OPENED_GAME-GMN20" style="stroke:#181818;stroke-width:1.0;stroke-dasharray:7.0,7.0;"/></g><!--link OPENED_GAME to FINISHED_GAME--><g id="link_OPENED_GAME_FINISHED_GAME"><path d="M590.77,359.49 C591.42,379.96 592.34,409.25 593.03,431.29 " fill="none" id="OPENED_GAME-to-FINISHED_GAME" style="stroke:#181818;stroke-width:1.0;"/><polygon fill="#181818" points="593.18,436.08,596.8953,426.9588,593.0229,431.0825,588.8993,427.2101,593.18,436.08" style="stroke:#181818;stroke-width:1.0;"/></g><!--link FINISHED_GAME to question--><g id="link_FINISHED_GAME_question"><path d="M569.98,488.47 C555.96,502.76 541,518 541,518 C541,518 541,573 541,573 C541,573 543.71,584.26 546.65,596.49 " fill="none" id="FINISHED_GAME-to-question" style="stroke:#181818;stroke-width:1.0;"/><polygon fill="#181818" points="547.75,601.06,549.5618,591.3792,546.5945,596.1954,541.7783,593.2281,547.75,601.06" style="stroke:#181818;stroke-width:1.0;"/><path d="M546,523 L546,568 L784,568 L784,533 L774,523 L546,523 " fill="#FEFFDD" style="stroke:#181818;stroke-width:0.5;"/><path d="M774,523 L774,533 L784,533 L774,523 " fill="#FEFFDD" style="stroke:#181818;stroke-width:0.5;"/><text fill="#000000" font-family="sans-serif" font-size="13" lengthAdjust="spacing" textLength="217" x="552" y="541.897">Do you want to play a new game? or</text><text fill="#000000" font-family="sans-serif" font-size="13" lengthAdjust="spacing" textLength="183" x="552" y="559.603">Do you want to resume game?</text></g><!--link question to isResume--><g id="link_question_isResume"><path d="M554,653.47 C554,670.14 554,691.84 554,706.94 " fill="none" id="question-to-isResume" style="stroke:#181818;stroke-width:1.0;"/><polygon fill="#181818" points="554,711.87,558,702.87,554,706.87,550,702.87,554,711.87" style="stroke:#181818;stroke-width:1.0;"/></g><!--link isResume to OPENED_MENU--><g id="link_isResume_OPENED_MENU"><path d="M548.88,718.7 C531.53,697.34 476,629 476,629 C476,222 476,222 476,222 C476,222 490.91,175.56 501.27,143.31 " fill="none" id="isResume-to-OPENED_MENU" style="stroke:#181818;stroke-width:1.0;"/><polygon fill="#181818" points="502.68,138.9,496.1185,146.2449,501.1504,143.6603,503.735,148.6922,502.68,138.9" style="stroke:#181818;stroke-width:1.0;"/><text fill="#000000" font-family="sans-serif" font-size="13" lengthAdjust="spacing" textLength="20" x="477" y="403.897">Yes</text></g><!--link isResume to *end*--><g id="link_isResume_*end*"><path d="M561.33,730.76 C589.96,745.44 694.52,799.08 732.82,818.73 " fill="none" id="isResume-to-*end*" style="stroke:#181818;stroke-width:1.0;"/><polygon fill="#181818" points="737.03,820.89,730.8569,813.2158,732.5839,818.6026,727.1971,820.3296,737.03,820.89" style="stroke:#181818;stroke-width:1.0;"/><text fill="#000000" font-family="sans-serif" font-size="13" lengthAdjust="spacing" textLength="18" x="668" y="782.897">No</text></g><!--link OPENED_GAME to *end*--><g id="link_OPENED_GAME_*end*"><path d="M633.38,359.49 C698.76,396.39 815,462 815,462 C815,462 815,462 815,727 C815,727 774.35,786.18 755.91,813.03 " fill="none" id="OPENED_GAME-to-*end*" style="stroke:#181818;stroke-width:1.0;"/><polygon fill="#181818" points="753.19,816.98,761.5766,811.8162,756.016,812.8552,754.9769,807.2946,753.19,816.98" style="stroke:#181818;stroke-width:1.0;"/></g><!--link OPENED_SETTINGS to *end*--><g id="link_OPENED_SETTINGS_*end*"><path d="M117.36,248.46 C165.12,280.6 243,333 243,333 C243,333 243,333 243,727 C243,727 643.89,805.75 730.59,822.78 " fill="none" id="OPENED_SETTINGS-to-*end*" style="stroke:#181818;stroke-width:1.0;"/><polygon fill="#181818" points="735.45,823.73,727.3997,818.0562,730.5455,822.7577,725.844,825.9034,735.45,823.73" style="stroke:#181818;stroke-width:1.0;"/></g><!--link OPENED_RULES to *end*--><g id="link_OPENED_RULES_*end*"><path d="M903.42,248.46 C930.25,280.6 974,333 974,333 C974,333 974,333 974,727 C974,727 812.74,797.33 762.05,819.43 " fill="none" id="OPENED_RULES-to-*end*" style="stroke:#181818;stroke-width:1.0;"/><polygon fill="#181818" points="757.57,821.39,767.4186,821.4585,762.1531,819.3912,764.2205,814.1256,757.57,821.39" style="stroke:#181818;stroke-width:1.0;"/></g><!--SRC=[TL91Ri8m4Bpx5IEEI7m08QfAf1Iff5K2XwfKbKctn2AnqzWHIbzVsq0AJhbvFQkPsPtLUo4hNlCIXP1asefGgQ9r1TE66uBG2Ucc94mcMQv4HjFf2VbkI1kX9BZ600F6teRl68scU7w9ucZsiOpYDMCNnIMOHglL8fwdJ2fBLOjTRg2-GXHZ35CoC3b1YnzoBUwTgN8h9FVggiP63jCJAfjoIpMuCLHMHeVwVmRczylefhja_HJTiEOXvojf2j9dGpjUKiVcg15A_KlcEyTOIoEAtc12OsTNhEcpp_omY1VfOpV6LUaRpk4STIsRZNHlfMOAhMfmuD9kLQ4gU0iEIGS_mftTvaO6FVKnVuyprgNkLCx7mReh2VAtYg-ahs5t9cF4gZUK1LXu0C7_SVkdpry0]--></g></svg>